<?xml version="1.0" standalone="no"?>
<!DOCTYPE svg PUBLIC "-//W3C//DTD SVG 1.1//EN" "http://www.w3.org/Graphics/SVG/1.1/DTD/svg11.dtd" >
<svg xmlns="http://www.w3.org/2000/svg">
<metadata>Generated by IcoMoon</metadata>
<defs>
<font id="icomoon" horiz-adv-x="1024">
<font-face units-per-em="1024" ascent="960" descent="-64" />
<missing-glyph horiz-adv-x="1024" />
<glyph unicode="&#x20;" horiz-adv-x="512" d="" />
<glyph unicode="&#xe600;" glyph-name="cuowu" d="M964.018 706.199c33.617 33.617 34.16 87.58 0.593 121.147l-60.466 60.466c-33.29 33.29-87.435 33.119-121.147-0.593l-270.999-270.999-270.999 270.999c-33.617 33.617-87.58 34.16-121.147 0.593l-60.466-60.466c-33.29-33.29-33.119-87.435 0.593-121.147l270.999-270.999-270.999-270.999c-33.617-33.617-34.16-87.58-0.593-121.147l60.466-60.466c33.29-33.29 87.435-33.119 121.147 0.593l270.999 270.999 270.999-270.999c33.617-33.617 87.58-34.16 121.147-0.593l60.466 60.466c33.29 33.29 33.119 87.435-0.593 121.147l-270.999 270.999 270.999 270.999z" />
<glyph unicode="&#xe601;" glyph-name="zhengque" horiz-adv-x="1365" d="M573.837-36.623c-25.53-28.070-46.711 2.253-45.583 1.122l-515.265 512.137c-16.856 16.902-16.856 44.463 0 61.283l123.32 125.507c16.855 16.861 44.362 16.861 61.3 0l357.487-357.597 616.305 628.709c16.648 16.653 43.782 16.653 60.428 0l121.019-121.149c16.645-16.653 16.645-43.796 0-60.45h1.367l-782.81-792.9c0.95 1.133 1.757 2.246 2.431 3.339v0z" />
<glyph unicode="&#xe602;" glyph-name="fanhui" horiz-adv-x="512" d="M404.229-55.25l-389.896 451.334c-9.708 11.234-14.35 24.996-14.164 38.642-0.205 13.673 4.436 27.469 14.162 38.726l389.897 451.433c21.529 24.957 59.809 28.152 85.398 7.188 14.337-11.58 21.686-28.353 21.686-45.124 0-13.376-4.625-26.855-14.182-37.834l-357.867-414.346 357.865-414.347c9.559-10.98 14.182-24.458 14.182-37.835 0-16.77-7.348-33.542-21.684-45.123-25.588-20.964-63.868-17.67-85.398 7.286v0z" />
<glyph unicode="&#xe603;" glyph-name="gerenshezhi" horiz-adv-x="1097" d="M1092.2 511.317c-4.298 23.779-27.294 47.987-51.15 53.342l-17.838 4.070c-41.908 12.639-79.089 40.274-102.73 80.977-23.641 40.917-29.228 87.404-18.913 130.035v0l5.588 16.71c7.092 23.136-2.149 55.056-20.847 70.909 0 0-16.763 14.139-64.045 41.346-47.281 26.992-67.698 34.49-67.698 34.49-22.996 8.355-55.233 0.428-71.997-17.352l-12.465-13.282c-31.807-29.992-74.576-48.201-121.857-48.201s-90.479 18.423-122.287 48.629l-12.035 12.854c-16.548 17.781-49.001 25.707-71.997 17.352 0 0-20.632-7.498-67.913-34.49-47.281-27.421-63.83-41.56-63.83-41.56-18.698-15.638-27.939-47.344-20.847-70.695l5.158-16.924c10.101-42.631 4.728-88.904-18.913-129.821s-61.251-68.767-103.374-81.192l-17.193-3.856c-23.641-5.356-46.852-29.349-51.15-53.342 0 0-3.868-21.423-3.868-75.836s3.868-75.836 3.868-75.836c4.298-23.993 27.294-47.987 51.15-53.342l16.763-3.856c42.123-12.425 79.949-40.275 103.589-81.406 23.641-40.917 29.228-87.404 18.913-130.035v0l-4.943-16.495c-7.092-23.136 2.149-55.056 20.847-70.909 0 0 16.763-14.139 64.045-41.346s67.698-34.49 67.698-34.49c22.996-8.355 55.233-0.428 71.997 17.352l11.82 12.639c32.022 30.206 75.005 48.629 122.502 48.629s90.694-18.638 122.502-48.843v0l11.82-12.639c16.548-17.781 49.001-25.707 71.997-17.352 0 0 20.632 7.498 67.913 34.49 47.281 27.207 63.83 41.346 63.83 41.346 18.698 15.639 27.939 47.558 20.847 70.909l-5.158 17.138c-10.101 42.417-4.728 88.69 18.913 129.392 23.641 40.917 61.466 68.981 103.589 81.406v0l16.763 3.856c23.641 5.356 46.852 29.349 51.15 53.342 0 0 3.869 21.423 3.869 75.836-0.215 54.628-4.083 76.050-4.083 76.050v0 0zM548.249 217.613c-120.568 0-218.569 97.473-218.569 217.868 0 120.181 97.786 217.654 218.569 217.654 120.567 0 218.569-97.473 218.569-217.868-0.215-120.181-98.001-217.654-218.569-217.654v0 0z" />
<glyph unicode="&#xe604;" glyph-name="jindu-wancheng" horiz-adv-x="945" d="M944.385 435.2c0-261.018-211.597-472.615-472.615-472.615s-472.615 211.597-472.615 472.615c0 261.018 211.597 472.615 472.615 472.615s472.615-211.597 472.615-472.615z" />
<glyph unicode="&#xe605;" glyph-name="jindu-weiwancheng" horiz-adv-x="945" d="M471.769-37.415v0c-261.018 0-472.615 211.597-472.615 472.615s211.597 472.615 472.615 472.615c261.018 0 472.615-211.597 472.615-472.615s-211.597-472.615-472.615-472.615zM471.769 41.354c217.515 0 393.846 176.331 393.846 393.846s-176.331 393.846-393.846 393.846c-217.515 0-393.846-176.331-393.846-393.846s176.331-393.846 393.846-393.846v0z" />
<glyph unicode="&#xe606;" glyph-name="jindu-zhengzaixue" horiz-adv-x="945" d="M471.769-37.415v0 0c-261.018 0-472.615 211.597-472.615 472.615s211.597 472.615 472.615 472.615c261.018 0 472.615-211.597 472.615-472.615s-211.597-472.615-472.615-472.615zM471.769 41.354c217.515 0 393.846 176.331 393.846 393.846s-176.331 393.846-393.846 393.846c-217.515 0-393.846-176.331-393.846-393.846s176.331-393.846 393.846-393.846v0 0zM471.769 277.662c87.006 0 157.538 70.532 157.538 157.538s-70.532 157.538-157.538 157.538c-87.006 0-157.538-70.532-157.538-157.538s70.532-157.538 157.538-157.538v0 0z" />
<glyph unicode="&#xe607;" glyph-name="lishijilu" d="M512 946.53c-282.304 0-512-229.696-512-512s229.696-512 512-512h10.24c282.368 0 501.76 229.696 501.76 512s-229.696 512-512 512v0zM512 42.978c-216.256 0-391.552 175.296-391.552 391.552s175.296 391.552 391.552 391.552c216.256 0 391.552-175.296 391.552-391.552s-175.296-391.552-391.552-391.552v0zM731.456 447.458h-206.528v206.528c0 28.544-23.104 51.648-51.648 51.648s-51.648-23.168-51.648-51.648v-258.176c0-28.48 23.104-51.648 51.648-51.648h258.176c28.544 0 51.648 23.104 51.648 51.648-0.064 28.48-23.168 51.648-51.648 51.648v0z" />
<glyph unicode="&#xe608;" glyph-name="shipinkecheng2" horiz-adv-x="931" d="M252.12-27.328c-88.382-53.029-160.029-12.054-160.029 90.959v743.139c0 103.264 71.501 144.075 160.029 90.959l610.851-366.511c88.382-53.029 88.528-138.918 0-192.035l-610.851-366.511z" />
<glyph unicode="&#xe609;" glyph-name="shipinxiala" horiz-adv-x="1317" d="M0 874.057c0 40.396 32.545 73.143 72.66 73.143h1171.252c40.129 0 72.66-32.466 72.66-73.143 0-40.396-32.545-73.143-72.66-73.143h-1171.252c-40.129 0-72.66 32.466-72.66 73.143zM0 435.2c0 40.396 32.545 73.143 72.66 73.143h1171.252c40.129 0 72.66-32.466 72.66-73.143 0-40.396-32.545-73.143-72.66-73.143h-1171.252c-40.129 0-72.66 32.466-72.66 73.143zM0-3.657c0 40.396 33.336 73.143 73.324 73.143h731.067c40.496 0 73.324-32.466 73.324-73.143 0-40.396-33.336-73.143-73.324-73.143h-731.067c-40.496 0-73.324 32.466-73.324 73.143zM1316.571-76.8h-292.571l292.571 292.571v-292.571z" />
<glyph unicode="&#xe60a;" glyph-name="shixunzuoye" horiz-adv-x="945" d="M178.45 194.47l-63.926-13.477-114.825-174.216 43.235-43.324 174.343 114.859 13.545 63.895 143.387 143.401-52.24 52.329-143.52-143.467zM803.703 850.413c6.008 6.067 15.888 6.067 21.956 0 6.142-6.071 6.142-15.94 0-21.977l-251.543-251.521 39.233-39.252 251.48 251.52c6.137 6.101 15.948 6.101 22.011 0 6.145-6.037 6.145-15.94 0-21.977l-251.54-251.482 35.227-35.188c0.601 0.565 1.203 0.897 1.805 1.536l26.62 26.583v-0.037l213.245 213.169c42.575 42.515 42.575 111.416 0 153.905-42.5 42.515-111.487 42.549-153.999 0l-239.862-239.718c-0.535-0.631-0.94-1.297-1.47-1.862l35.167-35.252 251.669 251.553zM441.471 646.582c3.601 19.842 4.534 40.082 2.732 60.097-4.471 49.555-25.62 97.914-63.521 135.823-65.191 65.103-160.872 80.878-240.935 47.465l129.377-129.195c19.413-19.514 19.483-51.132-0.071-70.672l-53.978-53.891c-19.416-19.439-51.104-19.507-70.457 0l-126.509 126.462c-28.754-78.107-11.942-169.083 50.781-231.781 34.358-34.28 77.133-54.65 121.632-61.626 21.087-3.263 42.505-3.502 63.658-0.67 134.579-134.631 466.932-466.849 466.932-466.849 50.431-50.325 132.373-50.325 182.75 0 24.351 24.374 37.833 56.754 37.833 91.203 0 34.553-13.482 67.039-37.9 91.412l-462.324 462.222zM864.090 41.562c-26.352-26.317-68.857-26.317-95.276-0.068-26.155 26.212-26.155 68.9 0.067 95.114 26.352 26.141 68.857 26.212 95.146 0 26.356-26.212 26.289-68.9 0.063-95.046v0z" />
<glyph unicode="&#xe60b;" glyph-name="suitangzuoye2" horiz-adv-x="658" d="M5.894 307.859l-0.747-1.306c-15.251-48.104 1.537-176.125 20.615-245.147l-11.010-19.27c-11.66-20.381-10.439-35.936 9.734-47.701 20.188-11.78 30.367-2.862 42.027 17.516l8.583 15.020c74.274 17.062 180.911 69.12 221.814 109.419l0.744 1.301-291.759 170.168zM605.756 674.715c34.981 73.41 3.311 165.974-74.166 211.188-77.496 45.182-172.681 26.596-218.132-40.698l292.298-170.49zM285.666 797.409l-252.337-441.544 291.758-170.169 252.329 441.543-291.75 170.17z" />
<glyph unicode="&#xe60c;" glyph-name="tuichu" d="M206.406 798.289c-32.42-22.918-61.241-48.88-86.453-77.88-25.216-29.008-46.828-60.337-64.838-93.996-18.012-33.66-31.702-69.29-41.067-106.886s-14.047-75.731-14.047-114.403c0-66.603 12.786-129.084 38.361-187.453 25.576-58.365 60.157-109.214 103.742-152.537 43.591-43.331 94.74-77.704 153.454-103.128 58.712-25.423 121.574-38.137 188.568-38.137 66.283 0 128.782 12.713 187.496 38.137 58.72 25.423 110.048 59.798 153.993 103.128 43.948 43.324 78.527 94.173 103.742 152.537 25.216 58.371 37.822 120.851 37.822 187.456 0 37.951-4.5 75.193-13.509 111.715s-21.793 71.256-38.359 104.202c-16.574 32.94-37.107 63.735-61.6 92.38-24.494 28.649-51.869 54.431-82.13 77.347-15.851 11.46-32.959 15.755-51.333 12.892-18.366-2.87-33.315-11.818-44.846-26.856-11.53-15.044-15.851-31.872-12.971-50.491 2.888-18.619 11.889-33.66 27.017-45.12 45.39-32.94 80.151-73.401 104.289-121.383 24.13-47.984 36.195-99.544 36.195-154.687 0-47.266-9.002-91.85-27.017-133.745-18.009-41.893-42.681-78.415-74.018-109.567-31.345-31.157-68.085-55.865-110.231-74.125s-86.988-27.39-134.545-27.39c-47.544 0-92.392 9.129-134.537 27.39s-78.891 42.966-110.228 74.125c-31.336 31.152-56.19 67.672-74.561 109.567-18.376 41.893-27.557 86.478-27.555 133.745 0 55.853 12.964 108.674 38.899 158.447 25.936 49.771 62.32 90.767 109.146 122.995 15.847 10.744 25.397 25.425 28.636 44.046 3.245 18.619-0.537 35.809-11.342 51.567-10.81 15.039-25.578 24.17-44.309 27.39-18.732 3.22-36.015-0.534-51.867-11.276v0l0.004-0.007zM484.129 401.898c18.735 0 34.765 6.625 48.092 19.873 13.327 13.251 19.992 29.185 19.992 47.807v408.204c0 18.621-6.664 34.735-19.992 48.34-13.329 13.607-29.357 20.408-48.092 20.408-19.448 0-35.837-6.803-49.166-20.409s-19.992-29.719-19.992-48.34v-408.205c0-18.621 6.664-34.557 19.992-47.807 13.33-13.245 29.718-19.872 49.166-19.872v0 0.001z" />
<glyph unicode="&#xe60d;" glyph-name="wodekecheng" horiz-adv-x="878" d="M662.964 946.53v-0.354h-579.111c-46.311 0-83.853-40.663-83.853-90.825v-840.135c0-50.16 37.542-90.825 83.853-90.825h594.834c79.486 0 83.853 4.258 83.853 90.825v679.77h-58.993c-1.324-0.069-2.556-0.473-3.896-0.473h-555.528c-46.311 0-83.853 40.715-83.853 90.938v8.526c0 50.225 37.542 90.939 83.853 90.939l674.32-0.237v-792.83h58.521v854.681h-213.999z" />
<glyph unicode="&#xe60e;" glyph-name="xiaoxi" horiz-adv-x="878" d="M774.371 207.312l-1.603 389.934c0 60.113-37.009 83.745-87.201 147.266-38.342 48.515-105.598 58.2-148.707 97.098-48.098 43.372-71.324 104.919-97.401 104.919-22.957 0-49.313-59.598-95.182-100.603-44.608-39.887-108.481-52.047-149.371-102.619-52.001-64.267-90.878-80.126-90.878-146.063l1.602-389.593c-75.793-0.392-105.629-85.688-105.629-127.423h876.791c0 40.301-33.73 121.215-102.419 127.083v0zM439.926-76.236c62.973 0 115.159 44.948 126.238 104.134h-252.466c11.074-59.185 63.26-104.134 126.227-104.134v0z" />
<glyph unicode="&#xe60f;" glyph-name="logo1" horiz-adv-x="1078" d="M924.821 300.589c14.123-10.554 25.512-30.294 25.512-44.37v-274.79c0-35.062-19.61-46.52-48.255-26.613 0 0-290.554 187.297-296.468 191.018s-11.266 26.493 5.121 38.953c4.897 3.497 129.238 84.349 245.874 159.809l68.216-44.006zM554.893 602.696c0 17.571 11.906 39.517 26.655 49.058l442.835 286.472c29.554 19.119 53.513 6.239 53.513-28.749v-363.902c0-17.632-12.12-39.739-26.692-49.133 0 0-444.16-286.31-453.489-292.971-23.305-17.976-19.954-32.904-17.309-42.329-18.264 10.948-25.512 33.284-25.512 44.703 0 5.754 0 396.852 0 396.852v0 0zM127.562 245.016c0 17.517 11.821 39.477 26.472 49.098 0 0 340.822 223.666 353.795 233.897 12.276 11.068 15.174 20.576 15.174 20.576v-342.787c0-17.475-11.835-39.267-26.56-48.757l-315.55-203.345c-29.454-18.98-53.331-5.724-53.331 29.117v262.201zM523.002 593.254v17.925c0 5.7-11.562 32.5-31.89 44.37l-434.033 282.176c-29.333 19.335-57.079 5.061-57.079-29.962v-365.724c0-17.329 15.987-36.775 30.536-46.364l196.938-128.736c0 0 256.438 167.864 265.663 175.1 10.917 8.563 29.866 28.613 29.866 51.215v0 0z" />
<glyph unicode="&#xe610;" glyph-name="logo2" horiz-adv-x="4080" d="M940.473 288.828c14.362-10.761 25.944-30.888 25.944-45.24v-280.181c0-35.75-19.942-47.432-49.072-27.135 0 0-295.471 190.971-301.485 194.765s-11.457 27.013 5.208 39.717c4.98 3.565 131.425 86.004 250.035 162.944l69.37-44.87zM564.284 596.861c0 17.915 12.108 40.292 27.106 50.020l450.824 292.412c29.781 19.317 53.924 6.041 53.924-29.634v-371.41c0-17.773-12.326-40.148-27.144-49.727 0 0-451.677-291.926-461.164-298.718-23.7-18.329-20.292-33.55-17.602-43.159-18.574 11.163-25.944 33.937-25.944 45.58 0 5.867 0 404.637 0 404.637v0 0zM129.72 232.165c0 17.86 12.021 40.251 26.92 50.061 0 0 346.591 228.053 359.782 238.485 12.484 11.285 15.431 20.98 15.431 20.98v-349.512c0-17.818-12.035-40.038-27.009-49.713l-320.89-207.333c-29.952-19.353-54.233-6.142-54.233 29.27v267.763zM531.853 587.234v18.276c0 5.812-11.757 33.138-32.43 45.24l-441.379 287.711c-29.83 19.714-58.045 5.161-58.045-30.55v-372.898c0-17.669 16.258-37.496 31.053-47.274l200.271-131.261c0 0 260.778 171.157 270.159 178.535 11.102 8.731 30.372 29.175 30.372 52.22v0 0zM1676.397 609.964v72.6h257.532c7.85 0 13.889 6.6 13.889 15.6 0 7.8-6.039 14.4-13.889 14.4h-257.532v73.2h257.747c7.85 0 14.493 6.6 14.493 15 0 7.8-6.643 14.4-14.493 14.4h-114.629l28.986 48c7.246 13.2 2.415 28.8-10.266 36-11.474 7.8-28.986 3.6-35.629-9l-44.687-75h-216.187l-44.083 75c-6.643 12.6-24.155 16.8-35.629 9-12.681-7.2-17.512-22.8-10.266-36l28.382-48h-114.025c-7.85 0-14.493-6.6-14.493-14.4 0-8.4 6.643-15 14.493-15h257.747v-73.2h-257.532c-7.85 0-13.889-6.6-13.889-14.4 0-9 6.039-15.6 13.889-15.6h257.532v-72.6h-256.647c-7.246 0-13.889-6.6-13.889-15 0-7.8 6.643-14.4 13.889-14.4h565.831c7.246 0 13.889 6.6 13.889 14.4 0 8.4-6.643 15-13.889 15h-256.647zM1675.793 510.964h-308.58c-7.246 0-13.889-6.6-13.889-14.4 0-8.4 6.643-15 13.889-15h227.057l-227.661-122.4c-12.681-6.6-16.305-21.6-9.662-33.6 6.643-12.6 21.739-16.8 33.817-10.2l259.062 139.2 259.666-139.2c12.077-6.6 27.174-2.4 33.817 10.2 6.643 12 3.019 27-9.662 33.6l-227.661 122.4h227.057c7.246 0 13.889 6.6 13.889 15 0 7.8-6.643 14.4-13.889 14.4h-257.251zM2159.991 818.474l1.812 57.889c0.604 33.6-50.725 33.6-51.329 0l-1.812-57.889h-28.986c-8.454 0-14.493-6.6-14.493-15s6.039-15 14.493-15h28.382l-3.623-192.91c-0.604-36.6-1.208-66.6 27.778-106.2l28.986-40.2-70.050-97.8c-8.454-12-4.831-28.2 7.246-36.6 12.078-7.8 27.174-3.6 36.232 8.4l68.017 85.208 64.016-85.208c9.058-12 24.155-16.2 36.232-8.4 12.078 8.4 15.701 24.6 7.246 36.6l-70.883 101.28 23.287 36.72c28.986 39.6 27.778 69.6 27.778 106.2v192.91h28.382c16.439 0 13.868 30 0 30h-158.714zM2591.050 852.963c1.812 0 3.019-0.6 3.019-1.2 0.604-0.6 0-1.8 0-3l-108.805-151.8c-7.85-11.4-10.87-22.8-10.87-35.4v-36.6h-111.825c-7.85 0-14.493-6.6-14.493-15.6 0-7.8 6.643-14.4 14.493-14.4h111.825v-234.6c0-9.6-9.058-18-18.116-18h-9.489c-8.454 0-15.097-6-15.097-13.2 0-8.4 6.643-15 15.097-15h26.397c28.986 0 51.329 23.4 51.329 53.4v227.4h122.802c8.454 0 15.097 6.6 15.097 14.4 0 9-6.643 15.6-15.097 15.6h-122.802v18.6c0 11.4 3.623 21.6 10.266 31.2l119.071 169.2c6.039 7.2 7.246 16.2 3.019 25.8-3.019 7.8-12.078 13.2-21.136 13.2h-274.052c-7.85 0-14.493-6.6-14.493-14.4 0-8.4 6.643-15.6 14.493-15.6h229.365zM2159.387 788.474h77.748v-194.233c0-42.6-8.315-53.719-18.72-73.8l-22.027-28.685-21.905 31.208c-12.078 17.4-19.928 31.2-18.72 73.8l3.623 191.71zM2793.95 528.699c-7.246 0-13.889-6.6-13.889-15s6.643-15 13.889-15h263.29v-139.535c0-9-7.246-18-17.512-18h-14.643c-7.246 0-13.285-6-13.285-13.8 0-8.4 6.039-14.4 13.285-14.4h31.551c28.382 0 51.933 24 51.933 53.4v132.335h253.024c7.85 0 13.889 6.6 13.889 15s-6.039 15-13.889 15h-253.024v21.512l150.969 98.311c9.058 6 12.078 16.2 9.662 27-3.623 9.6-12.077 17.4-22.947 17.4l-346.020-1.2c-8.454 0-15.097-6.6-15.097-15 0-7.8 6.643-14.4 15.097-14.4h265.101c3.019 0 4.831-1.8 5.435-4.8 1.208-1.8 0-5.4-1.812-6l-100.243-65.312c-7.85-3.6-11.474-10.8-11.474-18.6v-38.912h-263.29zM2845.884 774.275c-28.382 0-51.933-31.112-51.933-59.912v-6.018c0-13.8 11.474-25.8 25.363-25.8 14.493 0 25.967 12 25.967 25.8v18.53c0 10.2 7.85 17.4 17.512 17.4h430.563c9.662 0 17.512-7.8 17.512-17.4v-18.53c0-13.8 11.474-25.8 25.363-25.8s25.363 12 25.363 25.8v6.018c0 28.8-23.551 59.912-51.933 59.912h-463.776zM3578.209 716.745c0 0-2.653-17.151 8.281-24.536s26.14-12.664 26.14-23.464l-26.14-119.083c-3.15-11.809-0.712-18-10.374-18h-3.342c-8.454 0-13.889-6.6-13.889-13.8 0-8.4 5.435-15 13.889-15h19.647c29.59 0 32.564 21.373 39.467 53.4l19.605 107.083c0 23.4-7.958 43.2-29.094 50.4l42.767 141.618c3.623 18 6.039 41.4-30.194 41.4h-116.482c-12.681 0-24.759-9.6-24.759-28.2v-530.999c0-14.4 11.474-25.8 24.759-25.8h0.604c14.493 0 25.967 11.4 25.967 25.8v508.799c0 15.6 6.039 19.8 20.532 19.8h48.741c1.208 0 3.623-0.6 4.831-1.8s1.208-3.6 1.208-4.8l-42.164-142.818zM3700.084 626.689c-7.85 0-14.493-6.6-14.493-14.4 0-8.4 6.643-15 14.493-15h54.456c0 0-27.825-211.124-27.825-232.724s-14.616-21.6-14.616-21.6c-21.258 0-17.558 0-27.22 0-9.058 0-15.097-6.6-15.097-14.4 0-8.4 6.039-15 13.889-15h18.116c28.382 0 2.566 0 33.123 0s44.819 27 44.929 58.673c0.11 31.673 26.030 225.052 26.030 225.052h152.63v-232.724c0-29.4 23.551-53.4 51.933-53.4h73.673c7.85 0 13.889 6 13.889 13.8v1.2c0 7.8-6.039 14.4-13.889 14.4h-56.764c-10.266 0-17.512 7.8-17.512 17.4v239.324h55.168c7.85 0 14.493 6.6 14.493 15 0 7.8-6.643 14.4-14.493 14.4h-364.914zM3738.624 851.571c-27.778 0-51.933-24-51.933-53.4v-14.689c0-13.8 11.474-25.8 25.967-25.8 13.889 0 25.967 12 25.967 25.8v21.289c0 9.6 7.246 18 17.512 18h259.947c9.662 0 16.908-8.4 16.908-18v-21.289c0-13.8 12.078-25.8 25.967-25.8 15.097 0 25.967 12 25.967 25.8v14.689c0 29.4-23.551 53.4-51.933 53.4h-124.183v24.793c0 15-12.078 27-25.967 27-14.493 0-25.967-12-25.967-27v-24.793h-118.252zM3731.378 724.090c-7.85 0-14.493-7.2-14.493-15 0-9 6.643-15 14.493-15h309.465c7.85 0 14.493 6 14.493 15 0 7.8-6.643 15-14.493 15h-309.465zM2845.101 861.921c-4.939 13.57 1.956 28.537 15.612 33.507 13.561 4.936 28.514-1.94 33.497-15.633l15.485-42.545c4.939-13.57-1.956-28.537-15.612-33.507-13.561-4.936-28.514 1.94-33.497 15.633l-15.485 42.545zM3041.152 861.914c-4.939 13.57 1.956 28.537 15.612 33.507 13.561 4.936 28.514-1.94 33.497-15.633l15.485-42.545c4.939-13.57-1.956-28.537-15.612-33.507-13.561-4.936-28.514 1.94-33.497 15.633l-15.485 42.545zM3291.179 861.919c4.939 13.57-1.956 28.537-15.612 33.507-13.561 4.936-28.514-1.94-33.497-15.633l-15.485-42.545c-4.939-13.57 1.956-28.537 15.612-33.507 13.561-4.936 28.514 1.94 33.497 15.633l15.485 42.545zM1527.499 117.208c-3.931 8.259-12.827 20.648-21.31 29.527l-9.517-5.368c8.483-9.085 17.172-22.093 20.896-30.353l9.931 6.194zM1443.914 131.042h-34.551c-2.276 7.433-7.241 17.964-11.586 26.017l-12.414-2.684c3.517-7.227 7.241-16.105 9.724-23.332h-45.103v-12.182h93.929v12.182zM1369.019 40.603c-3.931-16.518-10.758-33.243-19.448-44.806 2.897-1.652 7.862-4.956 10.138-6.607 8.483 11.976 16.345 30.766 20.896 48.936l-11.586 2.478zM1373.778 89.952h48.62v-26.017h-48.62v26.017zM1435.018 52.579v48.729h-73.447v-48.729h31.241v-68.345c0-2.065-0.621-2.684-2.897-2.684-2.069-0.206-8.896-0.206-16.345 0 1.655-3.304 3.724-8.053 4.138-11.356 10.758-0.206 17.379 0.206 21.724 2.065 4.552 2.065 5.793 5.162 5.793 11.769v68.552h29.793zM1439.777 6.947c-2.069 9.911-8.69 24.778-15.31 36.134l-9.931-4.543c6.207-11.356 12.62-26.43 14.896-36.341l10.345 4.749zM1534.327 90.985v12.389h-47.999c1.241 18.377 1.241 36.341 1.448 53.065h-12.827c-0.207-16.725-0.207-34.689-1.241-53.065h-27.931v-12.389h26.896c-3.517-43.98-13.862-88.167-44.068-114.184 3.31-2.065 7.655-5.368 9.931-8.053 31.862 28.494 42.827 75.365 46.758 122.236h49.034zM1506.396-15.353c-2.069 0-3.724 0.206-5.172 1.032s-1.862 3.304-1.862 8.053v79.701h-12.207v-78.050c0-12.595 1.241-15.899 4.759-18.377 2.897-2.271 8.069-3.097 12.414-3.097h13.241c3.724 0 8.69 0.413 11.586 2.065 3.103 1.239 5.172 3.717 6.414 7.846 1.034 3.923 1.862 14.66 2.069 23.952-3.517 1.032-8.069 3.097-10.758 5.575-0.207-10.531-0.414-18.583-1.034-22.093-0.621-3.304-1.655-4.956-3.103-5.781-1.241-0.619-3.931-0.826-6.621-0.826h-9.724zM1770.401 108.535c-8.276-22.3-23.379-51.827-34.758-70.41l11.172-6.194c11.793 18.996 26.069 47.284 35.999 70.616l-12.414 5.988zM1653.92 38.745c-5.586 17.964-18.62 47.903-29.793 70.41l-12.62-3.923c10.965-22.919 23.586-53.685 28.551-71.442l13.862 4.956zM1728.815-6.681v160.848h-13.862v-160.848h-35.999v161.055h-13.862v-161.055h-58.344v-13.628h180.618v13.628h-58.551zM1905.718 119.066c0.414 12.802 0.621 25.397 0.621 37.373h-13.655c0-11.976-0.207-24.571-0.414-37.373h-29.793v-13.421h29.379c-2.276-48.523-9.103-97.872-33.93-126.779 3.724-1.858 8.483-5.988 10.965-8.879 26.482 32.004 33.93 84.038 36.413 135.658h30.62c-3.517-79.082-7.241-107.989-13.241-114.803-1.862-2.891-3.931-3.51-7.034-3.51-3.724 0-11.793 0.206-20.689 1.032 2.276-3.923 3.517-9.911 3.724-14.041 8.896-0.619 17.379-0.619 22.551 0 5.793 0.413 9.724 2.271 13.448 7.433 7.862 9.498 11.172 39.851 15.103 130.083 0.207 1.858 0.207 7.227 0.207 7.227h-44.275zM1979.992 0.133v117.487h42.413v-117.487h-42.413zM1966.337 130.835v-159.196h13.655v15.28h42.413v-13.834h14.276v157.751h-70.344zM2165.584 114.523h13.655v14.247h55.447v-14.247h13.655v14.247h50.275v12.389h-50.275v15.486h-13.655v-15.486h-55.447v15.486h-13.655v-15.486h-49.034v-12.389h49.034v-14.247zM2135.585 20.575c-4.552-11.563-11.793-23.332-20.276-31.798 2.69-1.445 6.827-4.749 8.896-6.401 8.276 8.879 16.758 22.3 21.931 35.515l-10.552 2.684zM2206.342 100.896h-35.586c-2.69 5.988-6.827 13.215-10.345 18.583l-11.586-2.891c2.69-4.749 5.793-10.324 8.069-15.693h-38.275v-10.943h87.723v10.943zM2206.756 24.911v10.943h-36.827v16.312h39.31v10.943h-25.655c3.517 6.814 7.655 15.28 11.379 23.332l-12.207 3.51c-2.483-7.64-7.655-18.996-11.586-26.842h-25.862l6.207 1.652c-0.828 6.607-4.138 16.518-8.069 23.952l-10.758-2.478c3.31-7.227 6.207-16.518 6.827-23.126h-24.206v-10.943h42.413v-16.312h-39.517v-10.943h39.517v-39.644c0-1.858-0.621-2.478-2.69-2.478-1.862-0.206-8.069-0.206-15.103 0.206 1.655-3.51 3.517-8.053 4.138-11.356 9.517 0 16.138 0 20.069 2.065 4.552 1.858 5.793 5.162 5.793 11.563v39.644h36.827zM2179.239 16.858c5.586-8.672 11.379-20.442 14.276-28.288l9.31 5.369c-2.896 7.227-8.896 18.583-14.483 27.049l-9.103-4.13zM2301.306 62.077h-69.93v28.494c22.138 3.51 46.137 8.672 63.309 15.073l-10.965 9.705c-14.896-6.194-41.586-12.182-64.758-15.899v-53.685c0-21.68-2.276-48.936-21.31-68.345 2.69-1.858 7.448-6.401 9.31-9.085 21.103 21.061 24.413 53.065 24.413 77.224v4.336h29.379v-80.734h13.034v80.734h27.517v12.182zM2369.176 72.195v-14.867h187.238v14.867h-187.238zM2678.49 125.054c-2.69 8.259-8.69 21.061-15.103 30.766l-11.379-3.717c5.586-9.705 11.586-22.919 13.862-31.385l12.62 4.336zM2681.593 16.652c5.586 21.887 11.172 54.098 15.31 78.876l-13.034 2.478c-2.69-25.397-8.276-61.944-13.448-84.244-17.379-4.13-33.103-7.846-45.31-10.531l3.517-13.421c21.31 5.368 50.482 12.802 77.792 20.029l-1.448 12.389-23.379-5.575zM2636.077 93.256c4.965-23.745 9.103-54.304 10.138-74.746l11.793 2.271c-1.241 20.442-6 50.588-10.965 74.539l-10.965-2.065zM2627.594 105.025h79.447v12.802h-79.447v-12.802zM2789.385-8.333h-64.551v53.891h64.551v-53.891zM2812.35 100.276v13.215h-53.172v43.567h-13.862v-98.491h-33.93v-89.613h13.448v9.911h64.551v-9.085h14.069v88.787h-44.275v41.709h53.172zM3055.872 130.009c-6.414 7.227-19.655 17.964-30.413 25.191l-9.31-7.64c10.965-7.64 24-18.79 29.999-26.223l9.724 8.672zM2940.632 59.393h39.517v13.215h-91.033v-13.215h37.861v-61.944c-16.965-3.51-32.482-6.814-44.068-9.085l4.345-13.215c26.275 5.781 64.551 14.66 99.723 22.919l-1.241 12.182c-14.896-3.304-30.413-6.607-45.103-9.705v58.847zM3064.975 104.612v13.421h-62.275c-0.621 12.182-0.828 24.984-0.828 37.992h-14.483c0.207-12.802 0.414-25.604 1.241-37.992h-106.757v-13.421h107.584c5.586-77.017 23.379-136.277 56.689-136.277 15.103 0 20.276 10.531 22.758 46.045-3.724 1.445-8.896 4.336-12 7.433-1.448-27.875-3.931-39.231-9.724-39.231-21.517 0-38.482 50.588-43.654 122.030h61.447zM3155.81 109.981h146.894v-27.462h13.448v39.851h-34.758c6.827 8.466 14.689 18.79 20.896 28.288l-13.655 4.956c-5.172-9.911-14.069-23.745-21.724-33.243h-34.551l10.138 4.13c-2.483 8.879-9.724 22.093-16.965 32.004l-12-4.336c6.621-9.705 13.448-22.919 16.138-31.798h-47.379l7.862 4.13c-3.517 8.053-12 19.822-19.862 28.288l-11.379-5.162c6.827-8.259 14.483-19.203 18.413-27.255h-34.551v-39.851h13.034v27.462zM3320.083 40.81h-84.826v9.292c18.62 8.053 38.482 19.616 51.93 31.592l-9.103 6.814-2.897-0.619h-102.826v-12.389h87.102c-10.965-7.433-25.241-14.867-38.068-19.409v-15.28h-83.171v-12.802h83.171v-41.709c0-2.891-1.034-3.923-5.379-4.13-3.931-0.413-17.793-0.413-33.93 0.206 2.069-3.923 4.759-9.292 5.793-13.421 19.034 0 30.62 0.206 37.861 2.478 7.034 2.065 9.517 5.988 9.517 14.867v41.709h84.826v12.802zM3526.365 52.373c-44.896-15.486-93.929-31.798-123.722-40.883l4.965-13.834c31.655 10.737 78.619 26.842 121.446 41.916l-2.69 12.802zM3429.125 101.102c18.827-13.008 43.241-31.798 55.034-43.361l9.517 10.531c-12 11.356-36.827 29.32-55.447 41.709l-9.103-8.879zM3562.985 141.366h-157.239v-13.215h143.377c-1.448-97.252-3.103-134.419-9.724-141.646-2.069-2.684-4.345-3.304-8.276-3.304-5.172 0-17.793 0-32.068 1.032 2.483-3.717 4.345-9.085 4.552-13.008 11.379-0.826 24.62-1.239 32.275-0.413 7.448 0.619 12 2.684 16.551 8.879 7.448 10.324 9.103 45.013 10.552 153.621v8.053zM3831.541 55.676h-85.654v73.507h74.068v13.628h-161.79v-13.628h73.654v-73.507h-84.412v-13.628h84.412v-73.094h14.069v73.094h85.654v13.628zM3673.061 115.143c8.069-15.486 16.345-35.928 19.448-48.11l13.034 4.336c-3.103 12.389-11.793 32.211-20.276 47.284l-12.207-3.51zM3781.266 66.207c8.276 12.389 18.413 32.624 25.862 49.349l-14.483 4.336c-5.172-15.073-15.103-36.754-22.965-49.968l11.586-3.717zM4045.477 41.429v-47.903h-102.412v47.903h102.412zM3929.203-31.045h13.862v11.356h102.412v-10.943h14.483v85.276h-130.756v-85.689zM4015.685 125.673c10.138-9.085 21.31-20.235 31.034-31.179l-109.653-5.369c18.827 17.138 37.655 39.025 54.62 61.944l-13.448 6.194c-16.551-25.81-41.172-52.033-48.413-58.847-7.034-6.814-12.62-11.356-16.758-12.389 1.448-3.51 3.724-10.324 4.345-13.421 7.448 2.891 19.034 3.304 139.239 10.118 5.379-6.607 9.724-12.802 13.034-18.17l11.793 8.259c-10.758 17.138-34.758 42.328-55.034 59.879l-10.758-7.020z" />
<glyph unicode="&#xe611;" glyph-name="chakanshixunzuoye" horiz-adv-x="3243" d="M0.461 435.2c0 282.77 222.562 512 497.347 512h2247.972c274.677 0 497.347-229.168 497.347-512 0-282.77-222.562-512-497.347-512h-2247.972c-274.677 0-497.347 229.168-497.347 512v0 0zM1245.775 533.638c12.711 0 21.185-0.623 30.87-1.87v20.881c-8.474-1.247-17.554-1.87-30.87-1.87h-92.611v7.48c0 10.908 0.605 17.453 1.816 24.621h-22.396c1.211-7.791 1.816-14.336 1.816-24.932v-7.168h-86.255c-13.922 0-23.607 0.623-31.475 1.87v-20.881c9.382 1.247 18.159 1.87 30.265 1.87h71.425c-27.238-29.607-68.399-55.162-111.072-68.875 5.448-5.921 7.869-9.661 11.501-17.141 49.937 19.011 89.584 46.748 116.217 81.653-0.303-7.168-0.605-13.713-0.605-19.322v-19.946c0-8.103-0.605-14.648-1.513-20.257h21.791c-1.211 5.921-1.816 11.843-1.816 19.946v20.257c0 4.363-0.303 10.908-0.908 19.946 16.343-21.192 32.686-35.84 57.201-51.423 20.883-13.089 39.042-21.504 66.885-31.165 3.934 8.415 6.356 12.778 11.501 19.322-50.845 13.089-87.768 33.97-118.638 67.005h76.873zM1227.919 435.467c0 12.466 0.303 19.322 1.211 26.49-7.869-0.935-14.527-1.247-29.054-1.247h-107.743c-14.527 0-20.883 0.312-29.357 1.247 0.908-7.48 1.211-14.024 1.211-26.802v-61.395c0-12.154-0.303-19.322-1.211-26.49 9.382 0.935 15.738 1.247 29.357 1.247h107.743c13.014 0 21.185-0.312 29.054-1.247-0.908 6.856-1.211 14.024-1.211 26.802v61.395zM1083.253 443.57v-29.919h125.599v29.919h-125.599zM1083.253 396.822v-31.165h125.599v31.165h-125.599zM1279.672 328.57c-9.382-1.247-17.554-1.87-31.778-1.87h-203.077c-14.527 0-23.607 0.623-32.383 1.87v-22.127c9.382 1.247 19.975 1.87 32.686 1.87h201.867c13.619 0 23.607-0.623 32.686-1.87v22.127zM1541.766 587.865c-29.66-12.466-116.822-23.062-190.669-23.062h-16.948c3.632-5.921 5.448-9.973 7.566-17.453 29.054 0.623 29.054 0.623 82.321 4.051-2.724-12.154-3.026-12.778-5.75-23.997h-54.779c-13.014 0-21.488 0.623-29.66 1.87v-20.257c9.079 1.247 17.554 1.87 29.66 1.87h49.634c-2.421-7.168-6.053-16.518-9.685-24.932h-56.595c-12.711 0-22.396 0.623-30.87 1.87v-20.569c8.777 1.247 17.856 1.87 30.87 1.87h48.424c-20.883-38.957-48.424-70.745-83.228-95.054 6.356-4.675 10.593-9.038 15.132-15.894 21.185 18.076 38.436 36.463 54.779 58.902v-87.574c0-12.778-0.303-20.257-1.513-28.984h20.277v14.959h129.534v-14.959h20.277c-1.211 8.415-1.513 15.894-1.513 28.984v90.691c0 12.778 0.303 19.011 1.211 27.425-8.172-0.935-13.922-1.247-27.238-1.247h-121.060c5.75 9.35 6.658 10.596 13.014 22.751h137.1c13.014 0 21.488-0.623 30.568-1.87v20.569c-9.079-1.247-17.856-1.87-30.568-1.87h-129.231c4.54 10.908 7.264 17.453 9.685 24.932h101.69c11.803 0 21.488-0.623 29.66-1.87v20.257c-8.474-1.247-17.554-1.87-30.265-1.87h-95.94c1.513 5.61 3.934 14.336 6.658 25.555 30.265 2.493 66.885 7.791 91.4 13.089 15.738 3.117 15.738 3.117 20.883 4.051l-14.83 17.764zM1530.265 429.857h-129.534v-21.504h129.534v21.504zM1530.265 393.082h-129.534v-21.816h129.534v21.816zM1530.265 355.996h-129.534v-24.309h129.534v24.309zM1769.055 409.6c4.237 19.322 7.566 53.604 7.869 80.718 0.303 11.843 0.605 18.076 2.119 26.49h-24.817c1.513-7.168 2.421-15.583 2.421-30.542 0-28.672-3.329-59.526-7.869-76.666h-97.15c-15.738 0-25.12 0.623-32.989 1.87v-22.127c8.172 1.247 17.251 1.87 32.989 1.87h91.4c-8.474-19.634-18.159-30.23-39.647-42.385-23.909-13.713-50.845-21.816-90.189-26.802 6.053-5.298 10.29-11.531 13.317-19.634 41.463 9.35 65.070 17.764 86.558 30.23 26.633 15.583 42.673 33.97 51.148 58.591h86.86c13.922 0 23.909-0.623 33.897-1.87v22.127c-8.474-1.558-16.948-1.87-33.897-1.87h-82.018zM1763.002 552.96c-6.356 14.648-10.29 20.881-19.975 34.282l-16.040-9.038c8.172-11.531 12.106-17.453 15.738-25.244h-86.558c-11.198 0-18.764 0.312-30.265 1.558 0.605-6.856 1.211-12.778 1.211-21.504v-24.309c0-7.791-0.605-14.336-1.513-21.816h20.277v47.994h211.854v-47.994h20.58c-1.211 7.168-1.513 13.401-1.513 21.504v24.621c0 9.35 0.303 14.959 1.211 21.504-12.106-1.247-19.37-1.558-30.568-1.558h-84.439zM1720.631 442.635c-23.001 12.778-44.187 21.816-69.609 29.919l-11.198-15.894c24.212-6.545 47.819-16.829 69.912-30.854l10.895 16.829zM1881.64 321.402c-33.897 20.257-70.215 39.268-108.348 57.344l-9.685-15.271c14.527-7.48 15.738-8.103 47.516-25.555 38.134-20.881 40.858-22.751 59.017-34.905l11.501 18.387zM1740.909 484.397c-23.607 13.713-37.528 19.946-65.675 30.23l-11.198-14.648c28.752-10.285 45.095-18.076 66.583-32.412l10.29 16.829zM1978.488 454.478c0 15.583 0.303 23.062 1.513 33.035-7.264-0.935-14.527-1.558-23.304-1.558h-16.040c-11.198 0-15.738 0.312-23.304 1.558v-21.816c7.566 1.247 12.106 1.558 22.093 1.558h19.37v-109.39c0-7.168-1.816-10.908-7.566-14.959l9.382-19.011c5.145 3.74 6.053 4.363 14.224 9.35 3.632 2.493 8.172 5.298 13.014 8.415 18.764 12.778 18.764 12.778 28.752 19.322l-0.908 22.751c-12.409-9.973-22.699-17.141-37.226-26.49v97.235zM2096.218 565.426c1.211-9.038 1.513-15.894 1.513-32.1v-169.227c0-15.271-0.303-23.374-1.816-31.477h22.396c-1.513 7.48-1.816 15.271-1.816 31.165v169.539c0 16.206 0.303 22.439 1.816 32.1h-22.093zM2154.932 579.762c1.513-9.661 1.816-18.076 1.816-37.398v-202.574c0-19.322-0.303-28.672-1.816-38.022h22.699c-1.513 9.038-1.816 18.387-1.816 38.022v202.574c0 18.699 0.605 28.672 1.816 37.398h-22.699zM1941.565 569.789c19.672-14.648 32.686-26.802 47.819-44.878l14.224 15.894c-16.040 17.453-29.054 28.672-47.516 42.696l-14.527-13.713zM2058.387 548.597c0 15.271 0.605 23.686 1.816 31.477h-22.396c1.513-8.415 1.816-15.271 1.816-30.854v-67.005c0-56.097-2.421-85.393-9.382-110.637-6.658-23.997-15.435-39.58-31.173-55.162 7.869-4.986 11.198-7.791 16.948-14.959 14.527 16.518 25.12 35.217 31.173 56.721 8.172 28.36 11.198 59.214 11.198 117.493v72.927zM2336.219 418.638c6.356 9.661 7.869 12.154 13.922 23.062l3.026 4.986h78.083c17.554 0 27.238-0.312 34.805-1.247-0.908 7.48-1.211 13.713-1.211 27.425v22.127c0 13.401 0.303 19.946 1.211 28.36-8.474-0.935-18.462-1.558-32.989-1.558h-36.015v30.23h56.595c15.435 0 25.12-0.312 33.594-1.558v20.569c-7.869-1.247-17.554-1.87-34.502-1.87h-190.971c-16.343 0-26.633 0.623-34.199 1.87v-20.569c8.172 1.247 17.856 1.558 33.594 1.558h52.964v-30.23h-34.502c-13.619 0-24.212 0.623-32.686 1.558 0.908-8.415 1.211-15.894 1.211-28.36v-22.439c0-12.466-0.303-19.011-1.211-27.114 7.869 0.935 17.856 1.247 34.805 1.247h50.24c-6.356-12.154-8.172-15.271-16.948-28.049h-54.477c-16.040 0-25.725 0.623-33.594 1.87v-20.569c9.382 1.247 19.067 1.558 33.594 1.558h41.463c-17.251-19.946-20.883-23.997-33.291-35.528 30.265-6.545 50.542-11.531 75.36-19.011-33.897-16.829-68.399-24.621-118.941-25.867 4.54-7.48 6.658-12.154 8.777-19.322 61.135 5.298 99.269 16.206 133.166 38.022 43.884-15.271 65.675-24.309 99.874-41.761l13.619 17.141c-33.291 14.648-62.951 26.179-96.848 37.087 16.343 14.024 25.725 27.114 36.318 49.241h33.291c14.527 0 24.212-0.312 33.897-1.558v20.569c-7.869-1.247-17.251-1.87-33.897-1.87h-117.125zM2398.565 401.497h-74.452c-8.777-11.219-12.409-15.583-23.001-26.49 27.844-6.545 43.279-10.596 61.74-16.518 18.159 13.713 28.752 26.49 35.713 43.008zM2379.8 552.025h-48.424v-30.23h48.424v30.23zM2314.126 462.581v43.32h-47.516v-43.32h47.516zM2331.377 462.581h48.424v43.32h-48.424v-43.32zM2397.051 462.581h49.332v43.32h-49.332v-43.32zM2649.158 525.846h-88.071c-13.922 0-22.699 0.623-31.173 1.87v-21.504c8.474 1.247 17.856 1.87 30.568 1.87h88.676v-174.837c0-7.168-2.119-8.726-13.922-8.726s-24.212 1.247-39.647 3.74c3.026-8.103 3.934-12.466 4.842-20.569 12.409-1.247 25.725-1.87 37.226-1.87 12.711 0 18.462 0.935 22.699 3.428 5.448 3.428 8.172 9.973 8.172 19.946v91.937c-0.303 12.154-0.605 18.699-0.605 19.634-0.303 6.545-0.303 6.545-0.605 14.959-0.303 9.35-0.303 9.973-0.605 17.141 6.658-21.192 10.895-30.542 19.37-45.813 11.501-21.192 25.423-40.203 41.16-57.032 18.159-19.011 30.568-29.295 52.661-43.32 4.842 7.791 8.777 12.778 14.225 18.387-22.396 12.154-35.107 21.192-52.056 37.71-12.106 11.843-21.791 22.751-32.081 37.087 16.948 14.336 31.475 28.36 41.766 39.891 15.738 17.764 15.738 17.764 17.856 20.257l-16.948 13.401c-9.685-17.453-27.844-38.022-52.358-58.902-14.224 23.374-25.12 48.929-31.173 73.55h89.281c13.619 0 23.001-0.623 31.173-1.87v21.504c-8.474-1.247-17.554-1.87-31.173-1.87h-89.887v23.997c0 14.959 0.605 23.686 1.816 33.347h-23.001c1.211-9.038 1.816-18.387 1.816-33.347v-23.997zM2694.555 568.543c20.883-12.466 29.66-19.322 46.305-36.463l13.619 13.401c-18.159 16.518-25.423 22.127-46.911 35.217l-13.014-12.154zM2558.666 479.098c17.251-17.453 27.541-30.854 41.16-54.851l16.040 13.089c-14.83 22.751-23.607 33.97-42.371 53.604l-14.83-11.843zM2635.236 418.326c-19.975-15.894-32.989-24.621-58.109-38.957-19.672-11.219-31.475-16.518-45.397-20.569l9.987-21.192c5.145 3.428 8.474 5.61 14.83 9.038 42.976 23.997 55.385 31.789 84.136 52.981l-5.448 18.699zM411.199 257.113l259.413 178.087-259.413 178.087v-356.174z" />
<glyph unicode="&#xe612;" glyph-name="jignshi" d="M512 947.2c-282.516 0-511.539-229.023-511.539-511.539 0-282.518 229.025-511.54 511.539-511.54s511.539 229.025 511.539 511.54c0.001 282.514-229.025 511.539-511.539 511.539v0zM511.787 746.353c36.28 0 65.694-29.413 65.694-65.694s-29.412-65.694-65.694-65.694c-36.284 0-65.692 29.412-65.692 65.694-0.001 36.28 29.41 65.694 65.692 65.694v0zM577.936 191.029v0c-0.001-36.533-29.616-66.149-66.151-66.149-36.531 0-66.146 29.615-66.146 66.149 0 0.019 0.001 0.034 0.001 0.054v300.455h0.029c0.609 36.004 29.97 65.012 66.119 65.012 36.153 0 65.506-29.006 66.119-65.012h0.030v-300.508z" />
<glyph unicode="&#xe613;" glyph-name="shouqi" horiz-adv-x="1707" d="M939.119 905.299l741.884-880.111c47.48-56.327 27.231-101.988-45.47-101.988h-1564.769c-72.592 0-92.174 46.582-45.47 101.988l741.884 880.111c47.48 56.326 125.236 55.406 171.941 0z" />
<glyph unicode="&#xe614;" glyph-name="wujiaoxing" horiz-adv-x="1084" d="M542.118 106.918l-318.649-140.418 35.077 346.444-232.013 259.662 340.328 73.697 175.257 300.897 175.257-300.897 340.328-73.697-232.013-259.662 35.077-346.444z" />
<glyph unicode="&#xe615;" glyph-name="zhankai" horiz-adv-x="1707" d="M939.119-34.899l741.884 880.111c47.48 56.327 27.231 101.988-45.47 101.988h-1564.769c-72.592 0-92.174-46.582-45.47-101.988l741.884-880.111c47.48-56.326 125.236-55.406 171.941 0z" />
<glyph unicode="&#xe616;" glyph-name="guanbi" d="M512.292 946.33c-282.46 0-511.422-228.96-511.422-511.422 0-282.432 228.96-511.422 511.422-511.422 282.43 0 511.421 228.991 511.421 511.422 0 282.462-228.988 511.422-511.421 511.422v0zM712.304 323.788c12.278-12.274 12.278-32.167 0-44.446l-44.446-44.446c-12.279-12.282-32.169-12.282-44.446 0l-111.119 111.119-111.123-111.119c-12.277-12.282-32.168-12.282-44.446 0l-44.447 44.446c-12.278 12.279-12.278 32.172 0 44.446l111.123 111.121-111.123 111.119c-12.278 12.278-12.278 32.17 0 44.446l44.447 44.446c12.277 12.278 32.168 12.278 44.446 0l111.123-111.12 111.119 111.12c12.277 12.278 32.166 12.278 44.446 0l44.446-44.446c12.278-12.277 12.278-32.169 0-44.446l-111.121-111.119 111.121-111.121z" />
<glyph unicode="&#xe617;" glyph-name="bingtu" d="M1018.815 508.343c-32.074 224.233-209.439 401.598-433.672 433.672v-433.672h433.672zM1024 435.2c0-282.77-229.23-512-512-512s-512 229.23-512 512c0 282.77 229.23 512 512 512v-512h512z" />
<glyph unicode="&#xe618;" glyph-name="rili" horiz-adv-x="1097" d="M519.411 180.588h127.774v127.769h-127.774v-127.769zM327.751 372.241h127.774v127.769h-127.774v-127.769zM327.751 180.588h127.774v127.769h-127.774v-127.769zM966.62 947.2h-127.774v-63.885c0-35.312-28.609-63.885-63.888-63.885s-63.888 28.573-63.888 63.885v63.885h-255.548v-63.885c0-35.312-28.574-63.885-63.888-63.885-35.282 0-63.888 28.573-63.888 63.885v63.885h-127.771c-70.564 0-127.774-57.208-127.774-127.769v-766.611c0-70.561 57.21-127.769 127.774-127.769h766.643c70.564 0 127.774 57.208 127.774 127.769v766.611c0 70.561-57.21 127.769-127.774 127.769v0zM966.62 116.704c0-35.313-28.609-63.885-63.888-63.885h-638.869c-35.282 0-63.888 28.572-63.888 63.885v447.191c0 35.312 28.605 63.885 63.888 63.885h638.869c35.279 0 63.888-28.573 63.888-63.885v-447.191zM711.073 372.241h127.774v127.769h-127.774v-127.769zM519.411 372.241h127.774v127.769h-127.774v-127.769zM711.073 180.588h127.774v127.769h-127.774v-127.769z" />
<glyph unicode="&#xe619;" glyph-name="shengji" horiz-adv-x="931" d="M511.931 927.811c-25.971 25.852-67.95 25.852-93.921 0l-398.532-396.71c-25.971-25.852-25.971-67.639 0-93.491s67.95-25.852 93.921 0l285.15 283.846v-657.679c0-36.563 29.757-66.118 66.422-66.118s66.422 29.555 66.422 66.118v657.679l285.15-283.846c12.952-12.893 29.956-19.373 46.96-19.373s34.008 6.48 46.96 19.373c25.971 25.852 25.971 67.705 0 93.491l-398.532 396.71z" />
<glyph unicode="&#xe61a;" glyph-name="youhui" d="M500.528-54.538l501.148 500.529c12.746 12.747 20.528 30.035 20.528 48.062v385.177c0 37.383-30.586 67.97-67.97 67.97h-385.736c-18.027 0-35.315-7.501-48.062-20.249l-500.528-500.699c-26.544-26.544-26.544-69.665 0-96.209l384.497-384.539c26.543-26.543 69.579-26.586 96.123-0.042v0zM788.9 810.578c26.544 26.544 69.58 26.544 96.124 0s26.544-69.58 0-96.124c-26.544-26.544-69.58-26.544-96.124 0s-26.544 69.581 0 96.124v0z" />
<glyph unicode="&#xe61b;" glyph-name="XST-biye" d="M1.91 435.584c0 282.558 228.803 511.616 511.045 511.616s511.045-229.058 511.045-511.616c0-282.558-228.803-511.616-511.045-511.616s-511.045 229.058-511.045 511.616v0 0zM728.33 600.009l-52.632-0.048 0.193 65.969c0 0 3.166 22.196-13.898 25.463h-298.077c-17.065-3.267-13.898-25.463-13.898-25.463l0.184-65.969-52.624 0.048c-59.801 0.269-48.016-69.832-48.016-69.832 19.589-141.632 166.785-150.762 166.785-150.762 27.17-57.445 68.227-86.165 68.227-86.165l0.174-42.353c-92.232-21.54-120.832-90.797-120.832-90.797h298.076c0 0-28.6 69.255-120.832 90.797l0.165 42.353c0 0 41.068 28.719 68.239 86.165 0 0 147.204 9.13 166.783 150.763 0.001-0.001 11.786 70.1-48.016 69.831v0 0zM335.739 447.557c-55.243 36.683-48.843 81.87-48.843 81.87 2.907 37.327 38.832 34.79 41.030 34.801 11.67 0.097 22.707-5.293 22.707-5.293-0.73-40.863 36.968-135.062 36.968-135.062-21.153 4.717-51.862 23.684-51.862 23.684v0 0zM690.171 447.557c0 0-30.711-18.967-51.865-23.684 0 0 37.699 94.199 36.978 135.062 0 0 11.018 5.39 22.708 5.293 2.197-0.009 38.11 2.527 41.019-34.801 0.001 0 6.403-45.187-48.84-81.87v0 0z" />
<glyph unicode="&#xe61c;" glyph-name="XST-bofangkecheng" d="M512-76.8c282.77 0 512 229.23 512 512s-229.23 512-512 512c-282.77 0-512-229.23-512-512s229.23-512 512-512v0 0zM413.088 225.264c-28.54-17.124-51.676-4.065-51.676 29.051v361.77c0 33.168 23.326 46.061 51.676 29.051l298.217-178.93c28.54-17.124 28.35-45.001 0-62.011l-298.217-178.93z" />
<glyph unicode="&#xe61d;" glyph-name="XST-kaiqikecheng" d="M512-76.8v0 0c-282.77 0-512 229.23-512 512s229.23 512 512 512c282.77 0 512-229.23 512-512s-229.23-512-512-512zM712.343 395.58c-8.707 15.274-8.251 25.072-60.825 72.552 0.293 171.677-117.702 290.719-124.993 297.912-0.001 0.231-0.001 0.344-0.001 0.344s-0.076-0.072-0.178-0.174l-0.175 0.175c0 0 0.001-0.116 0.003-0.346-7.263-7.23-124.718-126.807-123.65-298.488-52.362-47.718-51.859-57.514-60.494-72.834-15.772-27.96-11.679-139.771 3.19-165.145s39.52-6.966 47.967 0.109c8.448 7.079 45.726 53.745 54.904 51.65 0 0 11.282 2.143 24.002-9.827 12.572-11.829 35.475-22.931 55.074-24.512-0.001-0.023 0.001-0.045-0.004-0.065 0.119 0.014 0.236 0.024 0.354 0.036 0.114-0.008 0.239-0.022 0.355-0.030 0 0.016-0.004 0.039-0.001 0.061 19.598 1.668 42.445 12.882 54.962 24.766 12.669 12.027 23.965 9.935 23.965 9.935 9.161 2.139 46.654-44.354 55.128-51.396 8.485-7.037 33.211-25.33 47.966 0.108 14.756 25.45 18.346 137.277 2.451 165.169v0 0zM527.033 461.493c-32.722-0.074-59.309 26.408-59.382 59.149-0.076 32.746 26.391 59.349 59.117 59.42 32.722 0.079 59.31-26.403 59.382-59.147 0.075-32.743-26.393-59.344-59.117-59.422v0 0zM570.951 223.729c-14.915-11.24-29.976-15.015-43.699-14.855-13.721-0.217-28.798 3.484-43.767 14.654-13.423 9.568-25.413 8.261-31.743-0.075-6.327-8.334-4.094-58.9 3.688-69.765 7.779-10.861 16.912 7.080 30.31 7.758 13.402 0.669 24.54-26.192 29.617-41.543 2.595-7.849 6.638-15.022 12.124-15.535 5.491 0.535 9.505 7.727 12.062 15.589 5.014 15.373 16.030 42.282 29.428 41.675 13.405-0.617 22.617-18.513 30.35-7.609 7.731 10.9 9.733 61.47 3.367 69.778-6.362 8.308-18.358 9.56-31.739-0.072v0 0z" />
<glyph unicode="&#xe61e;" glyph-name="XST-shixunzuoye" d="M512-76.8v0 0c-282.77 0-512 229.23-512 512s229.23 512 512 512c282.77 0 512-229.23 512-512s-229.23-512-512-512zM362.276 312.233l-32.622-6.877-58.596-88.903 22.063-22.108 88.968 58.613 6.912 32.606 73.171 73.178-26.658 26.704-73.239-73.212zM681.345 646.963c3.066 3.096 8.108 3.096 11.204 0 3.134-3.098 3.134-8.134 0-11.215l-128.363-128.352 20.021-20.030 128.331 128.351c3.132 3.114 8.138 3.114 11.233 0 3.136-3.081 3.136-8.134 0-11.215l-128.362-128.332 17.976-17.957c0.307 0.288 0.614 0.458 0.921 0.784l13.584 13.565v-0.019l108.82 108.781c21.726 21.696 21.726 56.856 0 78.538-21.688 21.696-56.892 21.713-78.586 0l-122.402-122.329c-0.273-0.322-0.48-0.662-0.75-0.95l17.946-17.989 128.428 128.369zM496.496 542.948c1.838 10.126 2.313 20.454 1.394 30.668-2.281 25.288-13.074 49.966-32.415 69.311-33.267 33.222-82.093 41.272-122.95 24.222l66.022-65.929c9.906-9.958 9.942-26.093-0.036-36.064l-27.545-27.501c-9.908-9.92-26.079-9.954-35.955 0l-64.558 64.534c-14.673-39.858-6.094-86.284 25.914-118.279 17.533-17.493 39.361-27.888 62.069-31.448 10.761-1.665 21.69-1.787 32.485-0.342 68.676-68.703 238.277-238.235 238.277-238.235 25.735-25.681 67.551-25.681 93.258 0 12.426 12.438 19.306 28.962 19.306 46.541 0 17.633-6.88 34.21-19.34 46.648l-235.926 235.873z" />
<glyph unicode="&#xe61f;" glyph-name="XST-wancheng" d="M512-76.8c282.77 0 512 229.23 512 512s-229.23 512-512 512c-282.77 0-512-229.23-512-512s229.23-512 512-512v0 0zM477.181 217.331c-11.379-12.138-20.82 0.974-20.318 0.485l-229.668 221.465c-7.513 7.309-7.513 19.227 0 26.501l54.967 54.273c7.513 7.291 19.773 7.291 27.323 0l159.342-154.637 274.705 271.874c7.42 7.201 19.515 7.201 26.934 0l53.942-52.389c7.419-7.201 7.419-18.939 0-26.141h0.609l-348.921-342.876c0.423 0.49 0.783 0.971 1.084 1.444v0z" />
<glyph unicode="&#xe620;" glyph-name="XST-zhibokeceng" d="M512-76.8v0 0c-282.77 0-512 229.23-512 512s229.23 512 512 512c282.77 0 512-229.23 512-512s-229.23-512-512-512zM637.168 253.337h-234.44c-8.563 0-15.504-7.038-15.504-15.717s6.941-15.717 15.504-15.717h234.44c8.563 0 15.504 7.038 15.504 15.717s-6.942 15.717-15.504 15.717v0 0zM733.616 646.024h-421.613c-22.577 0-40.944-18.62-40.944-41.508v-280.413c0-22.885 18.368-41.505 40.944-41.505h421.613c22.577 0 40.944 18.62 40.944 41.505v280.413c0 22.887-18.368 41.508-40.944 41.508v0 0zM580.536 449.981l-1.278-1.159-71.641-56.363c-4.236-3.864-10.069-6.144-15.826-6.144-11.19 0-19.63 8.662-19.63 20.152v114.918c0 11.678 9.259 20.826 21.079 20.826 5.278 0 10.343-1.864 14.123-5.157l72.426-54.109 0.744-0.753c4.246-4.3 6.588-10.019 6.588-16.103 0.001-6.086-2.338-11.806-6.584-16.109v0 0z" />
<glyph unicode="&#xe621;" glyph-name="shuaxin" d="M39.746 476.838c19.186 0 36.061 13.634 39.156 32.749 33.754 208.595 215.301 359.994 431.676 359.994 180.124 0 339.572-105.708 406.215-269.301 8.11-19.912 31.195-29.622 51.562-21.693 15.758 6.137 25.261 21.043 25.001 36.697 0 0.050 0.004 0.1 0.004 0.15v244.282c0 21.433-17.771 38.81-39.692 38.81s-39.692-17.376-39.692-38.81v-102.009c-31.285 38.202-68.3 71.982-110.204 100.282-86.415 58.364-187.798 89.212-293.193 89.212-123.72 0-243.404-43.44-337.005-122.318-92.604-78.036-154.071-185.702-173.079-303.166-3.425-21.171 11.349-41.048 33.001-44.398 2.101-0.323 4.19-0.48 6.251-0.48v0zM988.727 395.137c-21.659 3.338-41.981-11.098-45.408-32.268-33.753-208.595-215.299-359.994-431.676-359.994-178.006 0-335.809 103.247-403.816 263.568-2.781 18.775-19.302 33.201-39.274 33.201-21.92 0-39.692-17.376-39.692-38.81v-2.175c-0.004-0.194 0.001-0.388 0-0.583v-241.523c0-21.433 17.771-38.81 39.692-38.81s39.692 17.376 39.692 38.81v98.199c31.286-38.202 68.302-71.983 110.206-100.283 86.415-58.363 187.798-89.212 293.192-89.212 123.72 0 243.404 43.44 337.007 122.317 92.604 78.036 154.071 185.704 173.078 303.167 3.425 21.168-11.349 41.045-33.001 44.396v0z" />
<glyph unicode="&#xe622;" glyph-name="tixing" horiz-adv-x="896" d="M448 947.42c-213.704 0-401.53-175.575-401.53-376.464 0-122.897 72.822-256.823 172.084-322.682h458.891c99.262 65.86 172.083 199.786 172.083 322.682 0 200.889-187.826 376.464-401.53 376.464v0zM678.173 637.341l-243.393-229.46c-1.849-1.734-2.184-1.209-1.737 0.682-12.211-8.666-26.942-9.978-34.952-2.47l-159.93 150.208c-9.131 8.613-6.106 25.525 6.834 37.763l15.516 14.81c12.94 12.237 30.811 15.179 39.94 6.566l115.003-107.983c0.503 0.631 0.897 1.366 1.511 1.943l198.918 187.024c9.186 8.613 27.057 5.672 39.94-6.565l15.572-14.759c12.883-12.236 15.908-29.147 6.777-37.759v0zM677.445 194.491h-458.89v-53.78h458.891v53.78h-0.001zM318.265-75.514h251.572c42.741 34.191 107.608 105.199 107.608 162.445h-458.89c0-57.247 56.969-128.254 99.71-162.445v0zM677.445 89.083c4.084-13.464 0 13.82 0 0v0 0zM220.099 89.083c0 13.82-4.092-13.464 0 0v0 0z" />
<glyph unicode="&#xe623;" glyph-name="bianji" d="M804.991 606.967l-441.705-437.379-220.865 218.687 441.731 437.389 220.839-218.697zM319.133 125.842l-265.045-43.724 44.18 262.408 220.865-218.685zM849.17 650.713l77.292 76.538-220.865 218.699-77.293-76.539 220.866-218.697zM924.439-68.475h-878.544c-25.355 0-45.894 20.487-45.894 45.58 0 25.107 20.54 45.58 45.894 45.58h878.544c25.356 0 45.894-20.473 45.894-45.58-0.001-25.095-20.54-45.58-45.894-45.58v0z" />
<glyph unicode="&#xe624;" glyph-name="qq" d="M146.483 487.462l-1.954 5.954-1.586 7.738-1.052 4.237v17.454l1.887 6.871 1.92 7.263 2.538 7.623 3.423 8.49 4.492 8.817 6.345 8.834v6.183l0.618 5.791 0.985 7.868 2.722 8.85 2.505 9.553 2.004 4.384 2.304 4.090 2.972 4.548 3.239 3.386v21.838l1.87 11.255 1.887 13.070 3.356 15.639 4.625 16.277 3.44 8.948 3.406 9.733 3.74 9.079 4.475 9.733 4.558 10.649 5.243 9.979 5.894 10.649 7.43 10.633 3.44 6.102 3.657 4.989 7.964 11.255 8.198 11.222 9.3 11.549 9.968 11.238 10.82 11.075 11.287 11.385 13.658 12.285 8.666 7.476 10.569 8.065 10.72 7.116 11.588 6.838 11.137 6.085 12.556 5.038 13.341 6.2 13.257 4.253 13.224 4.417 14.293 4.384 14.276 3.337 15.011 2.781 15.228 2.405 15.027 1.963 15.011 2.012 16.012 0.851h47.303l15.762-1.947 15.846-1.849 16.146-1.652 14.994-3.533 15.829-3.304 14.86-3.795 16.28-4.237 14.894-5.169 14.259-5.905 15.228-6.249 13.892-6.821 13.508-7.59 13.241-8.359 11.404-7.77 5.293-4.384 5.543-3.206 10.586-8.801 8.916-8.506 8.9-8.801 8.666-9.717 7.146-9.422 8.516-9.733 5.927-10.453 6.011-9.292 6.378-10.813 5.293-9.406 8.9-19.908 4.375-10.289 3.423-9.537 3.423-10.355 3.072-9.733 2.137-8.375 2.772-9.848 4.859-17.585 3.106-15.393 2.020-14.886 1.737-11.974 2.738-18.24 0.618-2.895 2.187-3.288 5.894-9.439 3.79-6.396 3.356-6.658 4.274-7.132 3.774-8.555 2.454-8.752 2.672-9.602 2.020-9.848 0.918-4.842 0.852-5.971v-5.186l-0.852-5.137v-6.396l-1.536-6.2-2.805-12.007-3.223-6.069-2.388-6.821v-1.701l1.135-2.11 3.206-4.989 13.959-20.235 11.020-15.197 5.276-10.142 7.113-11.107 6.195-12.171 7.146-13.005 7.146-14.624 8.048-16.555 4.542-10.142 4.141-9.913 3.573-10.453 3.523-9.406 2.688-9.88 2.738-9.275 3.456-18.092 2.738-18.485 1.887-16.391v-23.131l-1.269-8.196-1.803-14.15-2.471-12.711-3.84-11.533-1.436-4.695-2.688-5.66-2.237-3.942-3.006-4.858-2.638-3.059-3.356-3.959-3.005-3.19-3.206-2.732-3.84-1.652-3.456-1.652-2.839-0.916h-4.341l-2.772 0.916-5.276 2.552-4.959 3.484-2.772 2.437-2.805 2.732-4.625 5.038-5.477 7.116-4.308 7.345-4.308 5.873-4.208 6.838-5.927 12.138-6.662 12.629-0.785 0.442h-1.102l-2.705-1.979-1.57-3.321-2.605-4.122-4.542-12.269-6.846-17.454-8.766-21.004-6.595-10.469-6.913-10.927-8.215-12.285-8.716-12.023-4.458-5.447-5.41-5.938-12.439-11.974 1.085-1.080 1.686-1.718 6.211-3.566 25.88-12.187 11.287-6.233 10.77-6.053 10.653-7.623 9.501-7.852 4.592-3.55 3.456-4.090 3.556-4.744 2.939-5.137 1.586-4.27 1.937-5.12 0.835-4.433 0.918-5.169-0.918-3.468v-3.517l-0.835-3.632-1.937-3.321-0.735-2.601-1.77-3.157-4.692-6.265-4.341-5.022-3.356-3.762-2.805-2.781-7.146-5.104-8.081-4.449-8.616-4.253-9.233-4.090-10.302-3.959-5.543-1.652-4.859-1.341-11.972-2.732-12.356-2.601-12.423-2.585-13.508-2.159-13.925-0.573-14.276-1.685h-44.314l-15.979 0.916-14.877 1.341-16.046 2.159-15.912 1.669-16.764 2.29-16.246 3.959-15.846 2.994-15.745 4.417-16.146 5.66-15.846 4.679-8.349 2.732-7.414 2.585-4.692 1.783-4.658 0.965h-13.174l-15.228 1.047-7.697 0.769-9.918 1.080-6.362-5.644-8.682-5.316-11.771-5.611-13.024-7.001-7.914-3.795-8.265-3.010-18.25-7.312-9.918-2.437-10.402-2.748-14.426-2.748-9.033-0.687-9.551-0.802-9.968-1.080-11.604-0.425h-47.403l-26.765 0.425-25.997 2.568-13.157 1.832-25.079 3.664-12.373 2.437-11.538 3.648-11.471 2.601-10.352 4.073-9.785 3.795-9.133 4.27-7.931 4.662-7.864 5.676-2.688 2.748-3.523 3.321-2.672 2.895-2.404 3.337-2.221 3.321-1.72 3.353-2.488 7.116-0.868 3.681-1.102 4.090v3.779l1.102 4.27v4.237l0.868 4.237v8.555l0.417 4.515 2.070 5.169 1.72 5.169 3.122 6.233 2.287 2.405 1.887 2.781 4.926 5.905 3.924 3.043 3.707 2.127 3.423 2.699 5.41 1.685 4.341 2.585 5.41 2.732 6.161 1.816 6.195 1.849 7.18 1.538 6.796 0.883 8.065 1.031 8.749 0.654 2.271 0.736h0.501l1.102 0.916v1.047l-1.603 2.127-4.642 2.159-11.604 9.848-7.798 6.085-9.016 7.738-9.083 8.654-9.451 11.058-10.886 12.465-4.057 6.74-5.376 6.969-4.642 8.048-4.174 8.801-5.627 8.376-3.673 9.553-4.375 9.537-4.375 10.633-3.172 10.191-3.022 12.596-0.902 0.458h-0.918l-0.468 0.9h-1.119l-1.837-0.9-0.918-0.458-1.269-2.11-0.451-2.568-0.952-2.29-1.653-3.812-5.31-9.259-2.755-5.611-4.375-4.891-4.642-5.889-5.126-6.527-5.41-5.791-6.362-5.611-5.877-5.267-6.512-4.188-7.113-4.368-6.846-2.601-8.065-1.979-7.914-0.752h-1.87l-1.82 0.752-1.436 3.075-2.321 1.505-3.039 7.296-1.903 3.942-2.037 5.66-1.686 5.873-0.902 5.791-2.505 13.185-0.952 7.77v25.486l0.952 19.025 1.57 9.717 1.837 10.011 1.686 10.78 2.989 10.028 3.356 11.549 3.456 11.255 4.625 11.582 4.358 11.042 6.028 11.206 5.594 12.154 6.846 11.402 8.048 12.302 8.182 11.058 8.549 12.302 7.13 8.572 9.133 9.815 9.618 9.897 4.475 4.711 5.426 5.3 7.881 6.691 8.098 6.821 13.174 11.565 9.935 7.116 3.54 2.585z" />
<glyph unicode="&#xe625;" glyph-name="shouji" horiz-adv-x="768" d="M363.483 47.685l0.246 35.962-0.492-0.036 0.246-35.926zM645.826 947.2h-565.098c-44.562 0-80.728-32.222-80.728-71.924v-863.086c0-39.702 36.166-71.924 80.728-71.924h565.098c44.562 0 80.728 32.222 80.728 71.924v863.086c0 39.702-36.166 71.924-80.728 71.924v0zM363.277 11.723c-44.522 0-80.728 32.258-80.728 71.924s36.207 71.924 80.728 71.924c44.522 0 80.728-32.258 80.728-71.924s-36.207-71.924-80.728-71.924v0zM605.462 227.962h-484.37v611.352h484.37v-611.352z" />
<glyph unicode="&#xe626;" glyph-name="tousu" d="M511.565 338.655c-26.932 0-48.731 21.799-48.731 48.704v267.939c0 26.904 21.799 48.704 48.731 48.704 26.904 0 48.731-21.799 48.731-48.704v-267.939c0-26.904-21.827-48.704-48.731-48.704v0zM511.565 158.99c-31.982 0-57.865 25.911-57.865 57.892 0 31.926 25.883 57.837 57.865 57.837 31.954 0 57.837-25.883 57.837-57.837 0-31.982-25.883-57.892-57.837-57.892v0zM1005.776 302.672c-12.776-47.793-32.285-91.971-56.651-132.314l-0.055 0.028c-8.416-14.514-23.979-24.393-41.971-24.393-26.904 0-48.731 21.799-48.731 48.731 0 8.416 2.318 16.17 6.098 23.069l-0.911 0.552c20.53 33.306 36.755 70.006 47.434 109.742 59.079 220.532-71.8 447.162-292.277 506.241-220.504 59.079-447.162-71.772-506.241-292.304-59.079-220.477 71.772-447.135 292.304-506.241 114.516-30.657 230.438-9.768 323.955 47.903l0.331-0.552c6.899 3.725 14.652 6.043 23.013 6.043 26.959 0 48.731-21.827 48.731-48.731 0-18.047-9.906-33.637-24.531-42.026l0.331-0.552c-115.067-69.675-257.011-94.482-397.217-56.927-272.906 73.152-434.828 353.646-361.731 626.497 73.124 272.878 353.591 434.8 626.441 361.704 272.878-73.124 434.828-353.591 361.676-626.469v0z" />
<glyph unicode="&#xe627;" glyph-name="weixin" horiz-adv-x="1216" d="M823.080 638.099c13.984 0 27.74-1.097 41.572-2.665-37.24 178.891-222.604 311.766-434.264 311.766-236.588 0-430.388-166.27-430.388-377.538 0-121.9 64.448-222.007 172.216-299.772l-43.016-133.502 150.48 77.765c53.808-10.897 96.976-22.185 150.708-22.185 13.528 0 26.904 0.627 40.128 1.646-8.36 29.711-13.3 60.754-13.3 93.13 0.076 193.943 161.5 351.354 365.864 351.354v0zM591.736 758.431c32.528 0 53.884-22.028 53.884-55.423 0-33.238-21.356-55.502-53.884-55.502-32.148 0-64.524 22.263-64.524 55.502 0 33.474 32.3 55.423 64.524 55.423v0zM290.548 647.506c-32.3 0-64.828 22.263-64.828 55.502 0 33.395 32.528 55.423 64.828 55.423s53.732-21.95 53.732-55.423c0-33.238-21.432-55.502-53.732-55.502v0zM1216 292.075c0 177.48-172.216 322.114-365.636 322.114-204.82 0-366.016-144.712-366.016-322.114 0-177.951 161.272-322.114 366.016-322.114 42.864 0 86.108 11.053 129.124 22.185l118.028-66.79-32.376 111.004c86.412 66.947 150.86 155.609 150.86 255.716v0zM731.652 347.655c-21.356 0-43.016 21.95-43.016 44.37 0 22.107 21.66 44.37 43.016 44.37 32.68 0 53.884-22.263 53.884-44.37 0-22.42-21.204-44.37-53.884-44.37v0zM968.392 347.655c-21.204 0-42.788 21.95-42.788 44.37 0 22.107 21.508 44.37 42.788 44.37 32.376 0 53.884-22.263 53.884-44.37 0-22.42-21.508-44.37-53.884-44.37v0z" />
<glyph unicode="&#xe628;" glyph-name="youxiang" horiz-adv-x="1317" d="M1243.703 947.2h-1171.526c-31.746 0-72.177-38.4-72.177-68.196v-887.54c0-29.864 40.888-68.264 72.56-68.264h1171.526c31.746 0 72.485 38.4 72.485 68.196v887.54c0 29.864-41.2 68.264-72.868 68.264v0zM1184.914 740.42l-524.222-543.096-529.035 543.096v78.78h81.158l447.877-464.072 443.059 464.072h81.163v-78.78z" />
<glyph unicode="&#xe629;" glyph-name="suo" horiz-adv-x="805" d="M716.27 563.537h-629.403c-47.971 0-86.868-40.222-86.868-89.754v-459.007c0-49.578 38.898-89.754 86.868-89.754h629.403c48.005 0 86.881 40.176 86.881 89.754v459.007c0 49.532-38.876 89.754-86.881 89.754v0zM436.533 179.273v-80.83c0-21.38-16.775-38.723-37.459-38.723-20.677 0-37.462 17.342-37.462 38.723v82.448c-40.849 16.538-69.928 57.405-69.928 105.563 0 62.771 49.219 113.597 109.887 113.597 60.725 0 109.896-50.826 109.896-113.597-0.001-50.051-31.459-92.017-74.935-107.18v0zM239.258 655.475c0 92.536 72.807 167.8 162.313 167.8 89.518 0 162.324-75.265 162.324-167.8v-19.28h119.89v19.28c0 160.872-126.587 291.725-282.216 291.725-155.574 0-282.204-130.853-282.204-291.725v-19.28h119.89v19.28h0.003z" />
<glyph unicode="&#xe62a;" glyph-name="tianjia" d="M512-76.8v0 0c-282.77 0-512 229.23-512 512s229.23 512 512 512c282.77 0 512-229.23 512-512s-229.23-512-512-512zM559.407 719.644h-94.815v-237.037h-237.037v-94.815h237.037v-237.037h94.815v237.037h237.037v94.815h-237.037v237.037z" />
<glyph unicode="&#xe62b;" glyph-name="xuexijindu" horiz-adv-x="1091" d="M1056.696-7.96h-1022.609c-18.825 0-34.087-15.412-34.087-34.42s15.262-34.42 34.087-34.42h1022.609c18.825 0 34.087 15.412 34.087 34.42s-15.262 34.42-34.087 34.42v0zM511.304 413.687c0 38.017-30.525 68.84-68.174 68.84h-68.174c-37.649 0-68.174-30.823-68.174-68.84v-344.202h204.522v344.202zM784 878.36c0 38.017-30.525 68.84-68.174 68.84h-68.174c-37.649 0-68.174-30.823-68.174-68.84v-808.874h204.522v808.874zM1056.696 654.629c0 38.017-30.525 68.84-68.174 68.84h-68.174c-37.649 0-68.174-30.823-68.174-68.84v-585.143h204.522v585.143zM238.609 241.587c0 38.017-30.525 68.84-68.174 68.84h-68.174c-37.649 0-68.174-30.823-68.174-68.84v-172.101h204.522v172.101z" />
<glyph unicode="&#xe62c;" glyph-name="xiayibu" horiz-adv-x="614" d="M610.393 424.262c1.343 2.886 2.103 5.991 2.28 9.22 0.053 0.633 0.068 1.257 0.077 1.889-0.009 0.631-0.024 1.255-0.077 1.888-0.177 3.229-0.938 6.336-2.28 9.224-0.097 0.223-0.212 0.441-0.314 0.663-0.409 0.812-0.811 1.619-1.317 2.384-1.301 2.278-2.805 4.481-4.738 6.457l-471.996 482.211c-10.896 11.132-27.644 12.068-37.409 2.092l-87.854-89.756c-9.764-9.975-8.849-27.087 2.047-38.217l368.96-376.946-368.96-376.946c-10.896-11.132-11.812-28.242-2.047-38.218l87.854-89.756c9.765-9.975 26.513-9.040 37.409 2.092l471.996 482.213c1.934 1.976 3.438 4.182 4.739 6.461 0.504 0.761 0.906 1.565 1.313 2.375 0.103 0.225 0.22 0.442 0.317 0.671v0z" />
<glyph unicode="&#xe62d;" glyph-name="xiayibu1" horiz-adv-x="1519" d="M632.323-48.438c3.125-0.084 12.539 1.163 16.12 2.827 1.829 0.896 9.334 5.5 11.784 7.897l831.462 818.797c13.802 13.51 14.963 34.276 2.594 46.383l-87.93 85.572c-12.368 12.106-33.585 10.972-47.385-2.538l-724.302-714.401-490.729 480.827c-13.802 13.51-35.017 14.646-47.386 2.538l-87.93-85.572c-12.368-12.108-11.209-32.873 2.594-46.383l597.891-585.223c2.45-2.398 5.185-4.263 8.011-5.876 0.944-0.625 11.204-4.629 15.207-4.848z" />
<glyph unicode="&#xe62e;" glyph-name="shangchuan" d="M1018.58 4.791c-6.164-15.698-15.772-29.57-28.825-41.617s-29.006-21.539-47.861-28.475c-18.854-6.936-39.159-10.404-60.913-10.404-137.055-0.73-259.607-1.095-367.656-1.095h-369.831c-26.106 0-49.129 4.746-69.071 14.237s-35.895 21.174-47.861 35.046c-11.965 13.872-19.942 29.022-23.93 45.45s-3.445 31.213 1.632 44.355c4.351 10.222 8.702 20.809 13.053 31.76 3.626 9.492 7.977 20.261 13.053 32.308s10.515 24.277 16.316 36.689l41.334 100.757h124.002l-46.773-189.223h700.504l-46.773 189.223h118.563c15.228-37.236 29.006-70.822 41.334-100.757 5.076-13.142 10.152-25.919 15.228-38.332s9.608-23.547 13.597-33.403c3.988-9.857 7.252-18.253 9.79-25.189s3.807-10.769 3.807-11.5c4.351-17.523 3.445-34.133-2.719-49.831zM474.167 923.641c-13.778-16.063-29.55-36.141-47.317-60.235s-36.077-48.918-54.931-74.473c-18.854-25.554-37.527-50.744-56.019-75.568s-34.989-46.363-49.492-64.616c-16.679-19.713-23.205-35.959-19.579-48.736s15.953-19.166 36.983-19.166c11.603 0.73 27.193 0.548 46.773-0.548s35.895-1.643 48.948-1.643c14.503 0 23.568-4.381 27.193-13.142s5.439-20.444 5.439-35.046c0-16.063-0.181-33.768-0.544-53.117s-0.544-39.244-0.544-59.688c0-20.443-0.181-40.522-0.544-60.235s-0.544-37.966-0.544-54.759c0-7.301 0.544-14.968 1.632-22.999s3.626-15.333 7.614-21.904c3.988-6.571 9.79-12.047 17.404-16.428s17.948-6.571 31.001-6.571c15.228 0 29.188-0.183 41.878-0.548s27.375-0.548 44.053-0.548c23.93 0 40.065 5.658 48.404 16.975s12.872 29.388 13.597 54.212v42.712c0 16.793 0.181 34.681 0.544 53.664s0.544 37.966 0.544 56.95v51.474c0 21.174 2.175 38.149 6.526 50.926s14.141 18.801 29.369 18.071c10.877 0 24.112 0.365 39.702 1.095s29.188 1.095 40.79 1.095c19.579 0 32.088 5.293 37.527 15.88s1.632 24.277-11.421 41.069c-13.778 17.523-29.732 38.697-47.861 63.521s-36.802 50.561-56.019 77.211c-19.217 26.65-38.071 52.569-56.562 77.758s-34.989 46.911-49.492 65.164c-13.053 16.793-25.562 25.372-37.527 25.737s-24.474-7.484-37.527-23.547v0z" />
<glyph unicode="&#xe62f;" glyph-name="xiazai" d="M1018.58 4.791c-6.164-15.698-15.772-29.57-28.825-41.617s-29.006-21.539-47.861-28.475c-18.854-6.936-39.159-10.404-60.913-10.404-137.055-0.73-259.607-1.095-367.656-1.095h-369.831c-26.106 0-49.129 4.746-69.071 14.237s-35.895 21.174-47.861 35.046c-11.965 13.872-19.942 29.022-23.93 45.45s-3.445 31.213 1.632 44.355c4.351 10.222 8.702 20.809 13.053 31.76 3.626 9.492 7.977 20.261 13.053 32.308s10.515 24.277 16.316 36.689l41.334 100.757h124.002l-46.773-189.223h700.504l-46.773 189.223h118.563c15.228-37.236 29.006-70.822 41.334-100.757 5.076-13.142 10.152-25.919 15.228-38.332s9.608-23.547 13.597-33.403c3.988-9.857 7.252-18.253 9.79-25.189s3.807-10.769 3.807-11.5c4.351-17.523 3.445-34.133-2.719-49.831zM474.167 257.232c-13.778 16.063-29.55 36.141-47.317 60.235s-36.077 48.918-54.931 74.473c-18.854 25.554-37.527 50.744-56.019 75.568s-34.989 46.363-49.492 64.616c-16.679 19.713-23.205 35.959-19.579 48.736s15.953 19.166 36.983 19.166c11.603-0.73 27.193-0.548 46.773 0.548s35.895 1.643 48.948 1.643c14.503 0 23.568 4.381 27.193 13.142s5.439 20.443 5.439 35.046c0 16.063-0.181 33.768-0.544 53.117s-0.544 39.244-0.544 59.688c0 20.444-0.181 40.522-0.544 60.235s-0.544 37.966-0.544 54.759c0 7.301 0.544 14.968 1.632 22.999s3.626 15.333 7.614 21.904c3.988 6.571 9.79 12.047 17.404 16.428s17.948 6.571 31.001 6.571c15.228 0 29.188 0.182 41.878 0.548s27.375 0.548 44.053 0.548c23.93 0 40.065-5.658 48.404-16.975s12.872-29.387 13.597-54.212v-42.712c0-16.793 0.181-34.681 0.544-53.664s0.544-37.966 0.544-56.95v-51.474c0-21.174 2.175-38.149 6.526-50.926s14.141-18.801 29.369-18.071c10.877 0 24.112-0.365 39.702-1.095s29.188-1.095 40.79-1.095c19.579 0 32.088-5.293 37.527-15.88s1.632-24.277-11.421-41.070c-13.778-17.523-29.732-38.697-47.861-63.521s-36.802-50.561-56.019-77.211c-19.217-26.65-38.071-52.569-56.562-77.758s-34.989-46.911-49.492-65.164c-13.053-16.793-25.562-25.372-37.527-25.737s-24.474 7.484-37.527 23.547v0z" />
<glyph unicode="&#xe630;" glyph-name="daizhifu" d="M0 742.439c0 113.086 91.774 204.761 204.761 204.761h614.479c113.086 0 204.761-91.774 204.761-204.761v-614.479c0-113.086-91.774-204.761-204.761-204.761h-614.479c-113.086 0-204.761 91.774-204.761 204.761v614.479zM658.227 558.49v-303.514c0-13.517-5.53-15.974-30.72-15.974-28.877 0-46.694 1.843-84.173 7.373 6.758-15.36 9.216-24.576 11.674-41.779 28.262-2.458 49.766-3.686 74.957-3.686 54.682 0 67.584 9.83 67.584 50.381v307.2h30.106c19.661 0 39.322-0.614 58.368-2.458v41.779c-15.974-2.458-33.792-3.686-58.368-3.686h-30.106v70.656c0 30.106 1.229 50.995 3.686 71.885h-47.309c3.072-17.818 4.301-43.008 4.301-71.885v-70.656h-194.765c-25.19 0-47.923 1.229-63.898 3.686v-43.008c15.974 2.458 39.936 3.686 65.741 3.686h192.922zM365.158 596.582c18.432 35.021 38.093 77.414 46.694 98.918 7.987 20.275 11.059 27.648 15.36 35.021l-44.237 14.131c-3.072-19.046-11.059-42.394-27.034-78.643-33.792-76.8-68.813-129.638-123.494-187.392 14.746-14.131 14.746-14.746 22.733-27.034 0.614-1.229 2.458-3.686 4.301-6.758 29.491 33.178 43.622 52.224 68.813 94.618-1.843-28.262-2.458-47.309-2.458-74.342v-205.21c0-31.949-1.229-52.224-3.686-74.342h46.080c-1.843 21.504-3.072 44.851-3.072 73.114v337.92zM440.115 481.69c40.55-43.622 70.042-84.173 101.376-143.155l34.406 26.419c-35.635 58.368-58.982 89.702-103.834 138.854l-31.949-22.118z" />
<glyph unicode="&#xe631;" glyph-name="jindu-banyuan" d="M512-76.8c282.77 0 512 229.23 512 512s-229.23 512-512 512c-282.77 0-512-229.23-512-512s229.23-512 512-512zM512 874.057c242.374 0 438.857-196.483 438.857-438.857s-196.483-438.857-438.857-438.857v877.714z" />
<glyph unicode="&#xe632;" glyph-name="zhushi" d="M600.42 947.2v-364.623l366.808 93.891 56.772-174.671-366.792-100.432 231.427-294.755-148.478-98.246-227.072 277.272-218.33-277.272-157.188 98.246 229.257 294.755-366.824 100.432 56.772 174.671 360.252-93.891v364.623h183.396z" />
<glyph unicode="&#xe633;" glyph-name="shengji1" horiz-adv-x="931" d="M511.931 17.048c-25.971-25.852-67.95-25.852-93.921 0l-398.532 396.71c-25.971 25.852-25.971 67.639 0 93.491s67.95 25.852 93.921 0l285.15-283.846v657.679c0 36.563 29.757 66.118 66.422 66.118s66.422-29.555 66.422-66.118v-657.679l285.15 283.846c12.952 12.893 29.956 19.373 46.96 19.373s34.008-6.48 46.96-19.373c25.971-25.852 25.971-67.705 0-93.491l-398.532-396.71z" />
<glyph unicode="&#xe634;" glyph-name="banji" horiz-adv-x="1497" d="M1495.407-27.086h-275.625c-17.591 131.153-76.237 249.818-170.067 331.010-11.729 24.983-17.591 49.962-17.591 74.943 0 106.173 82.1 193.608 181.795 193.608s181.795-87.435 181.795-193.608c0-68.699-35.188-131.153-87.966-162.382 99.695-37.474 170.067-131.153 187.658-243.575l0.001 0.003zM451.554 378.868c0-18.734-5.865-43.717-11.729-62.457-99.695-81.191-170.067-206.1-187.658-343.498h-252.167c11.729 112.418 87.966 206.1 181.795 237.327-52.78 31.227-87.966 93.682-87.966 162.381 0 106.174 82.1 193.608 181.795 193.608s175.93-81.191 175.93-187.363v0.002zM1190.462-27.086h-903.11c23.458 181.119 146.609 331.010 304.947 393.462-87.966 56.21-146.609 156.136-146.609 268.553 0 174.873 129.016 312.27 293.216 312.27s293.216-137.4 293.216-312.27c0-112.418-58.646-218.591-146.609-268.553 164.202-62.457 281.491-212.345 304.947-393.462h0.003z" />
<glyph unicode="&#xe635;" glyph-name="con-up-down" horiz-adv-x="745" d="M288.618 909.71c33.323 39.010 86.879 39.562 120.674 0l265.483-310.786c33.323-39.010 18.814-70.633-32.822-70.633h-585.996c-51.45 0-66.617 31.071-32.822 70.633l265.483 310.786zM288.618 7.235c33.323-39.010 86.879-39.562 120.674 0l265.483 310.786c33.323 39.010 18.814 70.633-32.822 70.633h-585.996c-51.45 0-66.617-31.071-32.822-70.633l265.483-310.786z" />
<glyph unicode="&#xe636;" glyph-name="jdkz" horiz-adv-x="1216" d="M291.959 20.138c0-17.43-17.397-34.849-34.857-34.849h-139.436c-17.412 0-34.857 17.419-34.857 39.183v113.176l209.147 121.859v-239.371l0.004 0.002zM583.912 20.138c0-17.43-17.443-34.849-34.886-34.849h-139.404c-17.441 0-34.901 17.419-34.901 34.849v287.251l113.316 65.292 95.875-52.24v-300.303zM875.869 446.654v-426.518c0-17.43-17.491-34.849-34.881-34.849h-139.41c-17.436 0-34.855 17.419-34.855 34.849v256.777h4.346l204.799 174.097v-4.358l0.002 0.002zM1167.868 20.138c0-17.43-17.532-34.849-34.901-34.849h-139.388c-17.491 0-30.558 17.419-30.558 39.183v500.541l122.039 104.449 82.808-95.75v-513.574zM1172.078 825.341l-43.581-121.872-47.957 56.582-426.965-365.602-21.786 8.681-143.786 78.359-431.402-256.795-56.6 95.75 457.527 269.867 26.134 17.408 26.167-13.054 139.452-74.004 365.998 313.394-52.257 60.921 252.63 52.222-43.572-121.859z" />
<glyph unicode="&#xe637;" glyph-name="kaibanle" horiz-adv-x="2438" d="M322.761 946.807l0.005 0.393h-322.767l225.243-225.243v-555.378c0-107.606 87.183-195.010 194.728-195.010h1804.829c107.356 0 194.728 87.309 194.728 195.010v585.218c0 107.606-87.183 195.010-194.728 195.010h-1902.039zM859.575 657.749c-55.394 0-103.863-0.195-145.408-0.585s-76.946-0.878-106.203-1.463c-29.257-0.585-52.76-1.17-70.51-1.755s-30.72-1.268-38.912-2.048v42.715c17.944-2.341 45.153-4.096 81.627-5.266s77.921-1.755 124.343-1.755c46.422 0 86.211 0.683 119.369 2.048s58.709 3.023 76.654 4.974c-1.56-9.362-2.536-17.652-2.926-24.869s-0.585-16.677-0.585-28.379v-162.085c0-11.313 0.293-21.845 0.878-31.598s1.658-19.7 3.218-29.842h-41.545v59.685h-310.711v-165.595c0-15.994 3.121-26.917 9.362-32.768s18.724-9.167 37.449-9.947c19.505-0.78 36.571-1.365 51.2-1.755s29.452-0.585 44.471-0.585c15.019 0 31.793 0.195 50.322 0.585s41.252 0.975 68.169 1.755c23.406 0.78 42.228 2.438 56.466 4.974s25.356 6.729 33.353 12.581c7.997 5.851 13.653 13.458 16.969 22.821s5.559 21.065 6.729 35.109c7.802-4.291 14.629-7.509 20.48-9.655s12.678-3.608 20.48-4.389c-3.901-16.384-8.387-30.427-13.458-42.13s-11.995-21.358-20.773-28.965c-8.777-7.607-20.285-13.458-34.523-17.554s-32.475-6.924-54.711-8.485c-7.412-0.39-17.262-0.78-29.55-1.17s-26.039-0.585-41.253-0.585h-48.274c-16.969 0-33.938 0.098-50.907 0.293s-33.353 0.488-49.152 0.878c-15.799 0.39-29.94 0.78-42.423 1.17-14.824 0.39-26.721 1.95-35.694 4.681s-15.799 6.729-20.48 11.995c-4.681 5.266-7.802 12.19-9.362 20.773s-2.341 19.31-2.341 32.183v178.469c0 19.895-0.293 36.376-0.878 49.445s-1.268 23.893-2.048 32.475c8.582-1.95 15.604-3.316 21.065-4.096s12.093-1.365 19.895-1.755c7.022-0.39 11.41-2.438 13.166-6.144s-0.878-7.314-7.899-10.825c-1.56-0.78-2.828-3.901-3.803-9.362s-1.658-13.848-2.048-25.161h310.711v150.967zM1223.534 663.601c-41.35 0-79.579-1.17-114.688-3.511v38.034c29.647-1.17 61.147-2.146 94.501-2.926s71.485-1.17 114.395-1.17h69.047c19.505 0 37.059 0.195 52.663 0.585s30.232 0.878 43.886 1.463c13.653 0.585 27.892 1.268 42.715 2.048v-38.034c-16.384 1.56-31.89 2.536-46.519 2.926s-30.915 0.585-48.859 0.585v-170.277c14.434 0 27.892 0.098 40.375 0.293s24.478 0.39 35.986 0.585c11.508 0.195 22.918 0.585 34.231 1.17s22.821 1.268 34.523 2.048v-39.205c-11.703 0.78-23.113 1.463-34.231 2.048s-22.43 0.975-33.938 1.17c-11.508 0.195-23.601 0.39-36.279 0.585s-26.234 0.293-40.667 0.293v-153.307c0-14.043 0.39-29.647 1.17-46.811s2.146-34.523 4.096-52.078h-46.226c1.95 17.554 3.316 34.913 4.096 52.078s1.17 32.768 1.17 46.811v153.893h-138.679c-2.731-30.428-7.119-57.441-13.166-81.042s-14.531-45.251-25.454-64.951c-10.923-19.7-24.673-38.132-41.253-55.296s-36.571-34.523-59.977-52.078c-4.291 6.632-9.070 12.093-14.336 16.384s-12.971 7.802-23.113 10.533c23.796 14.043 44.178 28.477 61.147 43.301s31.013 31.11 42.13 48.859c11.118 17.749 19.7 37.449 25.746 59.099s10.435 46.519 13.166 74.606c-30.818 0-59.684-0.293-86.601-0.878s-52.663-1.658-77.239-3.218v39.205c24.966-1.56 51.005-2.731 78.117-3.511s56.466-1.17 88.064-1.17c1.56 44.471 2.243 80.555 2.048 108.251s-0.878 48.567-2.048 62.61v0zM1259.813 664.186c0.39-7.022 0.585-16.579 0.585-28.672s-0.098-25.746-0.293-40.96c-0.195-15.214-0.488-31.5-0.878-48.859s-0.78-35.011-1.17-52.955h136.923v171.447h-135.168zM1946.185 716.849c-2.341-1.95-4.291-12.288-5.851-31.013s-2.341-49.542-2.341-92.453c0-38.23-0.683-72.265-2.048-102.107s-3.706-56.661-7.022-80.457c-3.316-23.796-7.802-45.056-13.458-63.781s-12.873-36.181-21.65-52.37c-8.777-16.189-19.505-31.793-32.183-46.811s-27.404-30.33-44.178-45.934c-5.461 4.291-11.118 7.899-16.969 10.825s-13.848 5.559-23.991 7.899c18.335 12.873 34.231 25.746 47.689 38.619s24.966 26.819 34.523 41.838c9.557 15.019 17.359 31.5 23.406 49.445s10.825 38.327 14.336 61.147c3.511 22.821 5.949 48.567 7.314 77.239s2.048 61.342 2.048 98.011c0 24.186-0.098 44.763-0.293 61.733s-0.585 31.305-1.17 43.008c-0.585 11.703-1.17 21.163-1.755 28.379s-1.463 13.166-2.633 17.847c7.802-1.95 15.019-3.413 21.65-4.389s13.848-1.268 21.65-0.878c3.901 0 6.437-1.853 7.607-5.559s-0.39-7.119-4.681-10.24v0zM1878.894 592.213c0-15.994-0.488-30.525-1.463-43.593s-2.341-25.551-4.096-37.449c-1.755-11.898-3.901-23.503-6.437-34.816s-5.364-23.211-8.485-35.694l-35.694 9.362c5.071 10.923 9.167 21.845 12.288 32.768s5.559 22.040 7.314 33.353c1.755 11.313 2.926 23.406 3.511 36.279s0.878 26.916 0.878 42.13l32.183-2.341zM1717.979 648.387c-16.384-0.39-30.817-0.975-43.301-1.755s-23.796-1.755-33.938-2.926v36.279c11.703-1.56 25.356-2.731 40.96-3.511s34.328-1.17 56.174-1.17c21.845 0 40.57 0.39 56.174 1.17s29.257 1.95 40.96 3.511v-36.279c-10.533 1.17-22.43 2.146-35.694 2.926s-29.062 1.365-47.397 1.755v-133.998c5.851 0 12.19 0.098 19.017 0.293s13.458 0.488 19.895 0.878c6.437 0.39 12.288 0.78 17.554 1.17s9.265 0.975 11.995 1.755v-36.864c-8.972 1.95-18.92 3.316-29.842 4.096s-23.796 1.17-38.619 1.17v-149.211c15.604 6.242 30.427 12.678 44.471 19.31s26.526 12.873 37.449 18.725c0-6.632 0.488-12.971 1.463-19.017s3.023-12.385 6.144-19.017c-19.895-7.412-39.302-14.921-58.222-22.528s-36.669-14.921-53.248-21.943c-16.579-7.022-31.598-13.653-45.056-19.895s-24.673-11.703-33.646-16.384c-1.95 8.972-4.389 16.481-7.314 22.528s-7.314 12.776-13.166 20.187c2.731 0.39 7.022 1.268 12.873 2.633s12.678 3.218 20.48 5.559c7.802 2.341 16.286 4.974 25.454 7.899s18.627 6.144 28.379 9.655v161.499c-15.214 0-28.574-0.39-40.082-1.17s-21.748-2.146-30.72-4.096v36.864c2.731-0.78 6.827-1.365 12.288-1.755s11.508-0.78 18.139-1.17c6.632-0.39 13.556-0.683 20.773-0.878s13.751-0.293 19.602-0.293v133.998zM2034.542 648.387c-16.384 0-30.72-0.293-43.008-0.878s-24.869-1.658-37.742-3.218v35.109c7.802-0.78 15.409-1.463 22.821-2.048s15.019-0.975 22.821-1.17c7.802-0.195 16.189-0.39 25.161-0.585s19.115-0.293 30.427-0.293h35.109c9.362 0 17.652 0.195 24.869 0.585s14.043 0.878 20.48 1.463c6.437 0.585 13.556 1.268 21.358 2.048v-35.109c-7.022 0.78-13.458 1.463-19.31 2.048s-11.995 0.975-18.432 1.17c-6.437 0.195-13.653 0.39-21.65 0.585s-17.652 0.293-28.965 0.293v-148.041h34.816c9.167 0 16.969 0.195 23.406 0.585s12.093 0.878 16.969 1.463c4.876 0.585 10.24 1.268 16.091 2.048v-36.864c-5.851 0.78-11.215 1.463-16.091 2.048s-10.533 0.975-16.969 1.17c-6.437 0.195-14.238 0.39-23.406 0.585s-20.773 0.293-34.816 0.293v-191.342h33.646c9.167 0 17.554 0.195 25.161 0.585s14.824 0.878 21.65 1.463c6.827 0.585 14.531 1.268 23.113 2.048v-38.619c-9.362 1.17-17.847 2.048-25.454 2.633s-15.799 0.975-24.576 1.17c-8.777 0.195-18.92 0.39-30.427 0.585s-25.844 0.293-43.008 0.293c-13.653 0-26.039-0.098-37.157-0.293s-21.455-0.488-31.013-0.878c-9.557-0.39-18.822-0.878-27.794-1.463s-18.139-1.268-27.502-2.048v38.619c17.164-1.56 33.938-2.633 50.322-3.218s36.084-0.878 59.099-0.878v191.342c-16.774 0-31.598-0.293-44.471-0.878s-24.186-1.658-33.938-3.218v36.864c5.071-0.78 9.85-1.463 14.336-2.048s9.655-0.975 15.506-1.17c5.851-0.195 12.581-0.39 20.187-0.585s17.067-0.293 28.379-0.293v148.041z" />
<glyph unicode="&#xe638;" glyph-name="ksgl" horiz-adv-x="1084" d="M997.89 872.49c-82.232 78.056-188.503 97.535-237.365 43.509s10.53-106.424 92.762-184.479c82.232-78.055 156.163-152.211 205.024-98.185 48.86 54.025 21.809 161.099-60.422 239.154v0zM1019.347 614.231h-0.004c-43.634 0.003-98.909 52.571-157.432 108.226l-18.111 17.191c-38.345 36.329-71.462 67.703-88.632 96.075-18.623 30.771-17.065 56.417 4.901 80.706 18.206 20.13 44.875 30.771 77.125 30.771 51.908 0 112.137-27.756 161.113-74.245 39.858-37.832 68.108-83.608 79.55-128.895 11.467-45.387 4.684-84.863-19.094-111.157-11.36-12.563-24.256-18.671-39.417-18.671v0zM837.197 945.931v0c51.603 0 111.518-27.629 160.273-73.909 39.686-37.67 67.81-83.228 79.192-128.282 11.356-44.954 4.679-84.011-18.805-109.976-11.115-12.291-23.712-18.265-38.51-18.265h-0.004c-43.148 0.003-98.251 52.406-156.589 107.886l-18.114 17.193c-38.278 36.267-71.338 67.586-88.42 95.812-18.533 30.625-17.066 55.045 4.759 79.176 17.965 19.865 44.321 30.365 76.217 30.365zM322.778 915.183c-48.862 54.026-155.133 34.547-237.363-43.509s-109.284-185.128-60.422-239.156c48.862-54.026 122.792 20.129 205.023 98.185 82.232 78.056 141.624 130.454 92.763 184.48v0zM63.967 613.416h-0.007c-15.167 0.003-28.062 6.11-39.422 18.671-23.78 26.294-30.561 65.769-19.094 111.157 11.442 45.287 39.693 91.063 79.55 128.895 48.977 46.489 109.207 74.245 161.114 74.245 32.25 0 58.919-10.641 77.125-30.771 21.967-24.289 23.525-49.935 4.901-80.707-17.17-28.372-50.287-59.747-88.633-96.075l-18.148-17.226c-58.502-55.636-113.76-108.189-157.385-108.189v0zM246.108 945.117v0c31.896 0 58.252-10.5 76.217-30.364 21.825-24.131 23.292-48.551 4.758-79.176-17.082-28.226-50.142-59.547-88.421-95.812l-18.15-17.229c-58.322-55.466-113.411-107.855-156.55-107.85-14.802 0.003-27.401 5.976-38.514 18.265-23.483 25.964-30.161 65.022-18.803 109.976 11.382 45.054 39.508 90.612 79.192 128.282 48.754 46.279 108.67 73.908 160.273 73.908zM1010.994-3.392l-164.91 127.061c68.179 75.441 109.871 176.37 109.871 287.289 0 233.618-184.859 423.004-412.895 423.004s-412.895-189.386-412.895-423.004c0-111.733 42.306-213.329 111.378-288.947l-162.758-125.401c-15.131-11.658-16.713-35.662-3.535-53.614s36.127-23.054 51.259-11.396l169.859 130.873c2.017 1.554 3.774 3.34 5.307 5.29 67.89-50.205 151.258-79.809 241.384-79.809 91.183 0 175.444 30.304 243.762 81.585 1.798-2.654 3.977-5.054 6.589-7.066l169.862-130.874c15.131-11.658 38.080-6.556 51.259 11.396s11.595 41.956-3.535 53.614v0zM573.816 357.985c0.012-18.158-10.784-32.878-29.973-32.909l-258.146-0.557c-19.188-0.030-30.006 14.688-30.019 32.847-0.012 18.157 10.784 32.878 29.973 32.909l223.592 0.482 0.66 269.348c0.064 21.915 14.484 34.202 32.208 34.132s32.039-12.469 31.975-34.384l-0.722-294.832c0-0.222-0.025-0.427-0.028-0.648 0.312-2.067 0.478-4.2 0.479-6.387v0zM982.007-75.292c-0.001 0 0 0 0 0-7.081 0-13.688 2.207-19.109 6.384l-169.859 130.875c-2.391 1.841-4.527 4.087-6.359 6.682-71.105-53.206-155.332-81.328-243.621-81.328-87.248 0-170.663 27.513-241.274 79.581-1.526-1.872-3.222-3.529-5.046-4.935l-169.861-130.874c-5.42-4.176-12.027-6.384-19.108-6.384-12.442 0-24.787 6.693-33.018 17.905-13.362 18.204-11.722 42.653 3.658 54.502l162.207 124.979c-71.631 78.68-111.074 181.239-111.074 288.865 0 113.158 43.013 219.543 121.116 299.558s181.945 124.081 292.398 124.081c110.454 0 214.297-44.066 292.399-124.081s121.117-186.4 121.117-299.558c0-106.787-38.908-208.756-109.57-287.204l164.361-126.638c7.463-5.751 11.949-14.598 12.629-24.91 0.677-10.278-2.508-20.787-8.971-29.591-8.228-11.213-20.573-17.908-33.015-17.908v0zM786.967 70.435l0.363-0.534c1.834-2.708 4.005-5.036 6.453-6.921l169.861-130.874c5.203-4.010 11.554-6.129 18.363-6.129 12.056-0.001 24.029 6.504 32.028 17.4 6.284 8.561 9.382 18.769 8.725 28.743-0.655 9.939-4.967 18.456-12.139 23.982l-165.457 127.483 0.466 0.515c70.746 78.282 109.707 180.157 109.707 286.859 0 232.895-184.945 422.37-412.276 422.37s-412.275-189.473-412.275-422.37c0-107.539 39.496-210.003 111.212-288.513l0.47-0.515-163.309-125.828c-14.833-11.429-16.364-35.081-3.413-52.726 7.998-10.896 19.972-17.4 32.028-17.4 6.809 0 13.159 2.119 18.364 6.129l169.858 130.874c1.892 1.456 3.641 3.199 5.197 5.181l0.368 0.468 0.475-0.351c70.498-52.133 153.842-79.689 241.023-79.689 88.234 0 172.399 28.169 243.396 81.463l0.513 0.383zM285.7 323.885c-18.337 0-30.624 13.454-30.639 33.481-0.014 20.034 12.28 33.514 30.591 33.543l222.976 0.481 0.658 268.718c0.061 20.794 13.193 34.765 32.678 34.765h0.152c19.555-0.077 32.652-14.151 32.592-35.020l-0.722-294.832c-0.001-0.132-0.009-0.256-0.016-0.382-0.006-0.091-0.012-0.183-0.014-0.277 0.314-2.031 0.478-4.212 0.479-6.376 0.014-20.034-12.28-33.514-30.591-33.543l-258.144-0.558zM541.963 693.604c-18.746 0-31.381-13.462-31.44-33.5l-0.661-269.98-224.209-0.483c-17.571-0.028-29.367-12.998-29.355-32.274 0.014-19.268 11.803-32.212 29.339-32.212l258.205 0.556c17.57 0.028 29.368 12.998 29.355 32.274-0.001 2.1-0.16 4.217-0.472 6.291-0.005 0.222 0.001 0.332 0.009 0.443 0.006 0.1 0.014 0.202 0.014 0.306l0.722 294.831c0.059 20.111-12.544 33.674-31.358 33.749h-0.147v0.001z" />
<glyph unicode="&#xe639;" glyph-name="left-bar-down" horiz-adv-x="1755" d="M876.071 25.050c35.273-6.196 72.744 4.388 99.924 31.569l646.434 646.434c43.563 43.563 44.204 116.476-0.372 161.051-44.886 44.886-116.681 44.742-161.051 0.372l-584.935-584.935-584.935 584.935c-44.371 44.371-116.165 44.515-161.051-0.372-44.576-44.576-43.934-117.489-0.371-161.051l646.434-646.434c27.18-27.18 64.651-37.765 99.924-31.569z" />
<glyph unicode="&#xe63a;" glyph-name="left-bar-up" horiz-adv-x="1755" d="M876.071 896.044c35.273 6.196 72.744-4.388 99.924-31.569l646.434-646.434c43.563-43.563 44.204-116.476-0.372-161.051-44.886-44.886-116.681-44.742-161.051-0.372l-584.935 584.935-584.935-584.935c-44.371-44.371-116.165-44.515-161.051 0.372-44.576 44.576-43.934 117.489-0.371 161.051l646.434 646.434c27.18 27.18 64.651 37.765 99.924 31.569z" />
<glyph unicode="&#xe63b;" glyph-name="sfz" d="M478.574 947.2c58.903-44.359 147.043-64.086 230.399-93.282 76.302-26.725 154.881-54.095 245.284-64.857 0-186.623 11.304-146.956-21.279-342.638-24.474-146.976-180.027-404.209-352.197-484.522-33.72-15.729-86.496-38.7-102.209-38.7-35.553 0-71.048 22.883-105.656 38.57-168.245 76.258-315.548 313.989-346.735 480.922-38.040 203.623-23.42 149.927-23.42 336.55 114.317 23.447 159.983 44.777 229.486 69.067 91.977 32.144 181.992 50.497 246.327 98.892zM677.232 265.026c-7.409 48.561-83.283 53.778-119.028 75.978-28.196 17.509-13.918 57.363-12.589 60.261 20.26 16.408 36.13 40.022 45.071 67.775 10.25 2.615 19.385 15.756 21.68 32.51 2.46 17.98-3.805 33.896-14.265 37.74-5.23 71.231-42.144 126.339-119.749 126.339-0.092 0-0.183-0.003-0.275-0.003s-0.183 0.003-0.275 0.003c-77.606 0-114.519-55.108-119.749-126.339-10.461-3.844-16.726-19.761-14.265-37.74 2.294-16.754 11.429-29.895 21.68-32.51 8.941-27.753 24.812-51.367 45.071-67.775 1.33-2.898 15.608-42.752-12.589-60.261-35.745-22.2-111.619-27.417-119.028-75.978-6.295-41.058-44.679-59.296 199.153-60.256h0.003c243.832 0.959 205.448 19.198 199.153 60.256z" />
<glyph unicode="&#xe63c;" glyph-name="zyrz" horiz-adv-x="1451" d="M1293.474 472.781v0c-47.563 27.514-102.785 43.261-161.684 43.261-95.771 0-181.818-41.634-241.029-107.789h-244.024v-53.895h204.945c-27.514-47.563-43.261-102.785-43.261-161.684 0-37.795 6.484-74.075 18.4-107.789h-656.392c-94.125 0-170.429 76.525-170.429 170.366v521.584c0 94.090 77.039 170.366 170.429 170.366h952.615c94.125 0 170.429-76.525 170.429-170.366v-304.053zM646.737 731.621v-53.895h485.053v53.895h-485.053zM646.737 569.937v-53.895h485.053v53.895h-485.053zM533.451 357.097c-6.813 45.364-76.584 50.237-109.454 70.975-25.928 16.357-12.799 53.587-11.576 56.294 18.63 15.328 33.224 37.387 41.446 63.313 9.426 2.443 17.826 14.718 19.936 30.369 2.262 16.796-3.499 31.665-13.118 35.256-4.81 66.542-38.754 118.021-110.117 118.021-0.085 0-0.168-0.003-0.253-0.003s-0.168 0.003-0.253 0.003c-71.364 0-105.307-51.479-110.117-118.021-9.619-3.591-15.381-18.46-13.118-35.256 2.11-15.651 10.51-27.926 19.936-30.369 8.222-25.926 22.816-47.985 41.446-63.313 1.223-2.707 14.353-39.937-11.576-56.294-32.87-20.738-102.641-25.612-109.454-70.975-5.789-38.355-41.085-55.392 183.134-56.289h0.003c224.219 0.896 188.923 17.934 183.134 56.289zM1131.789-76.8c-148.826 0-269.474 120.648-269.474 269.474s120.648 269.474 269.474 269.474c148.826 0 269.474-120.647 269.474-269.474s-120.648-269.474-269.474-269.474zM1025.341 168.112l83.227-83.227 25.005 25.005-95.73 95.73-25.005-25.005 12.503-12.503zM1262.52 238.837l12.503 12.503-25.005 25.005-12.503-12.503-117.185-115.67-12.503-12.503 25.005-25.005 12.503 12.503 117.185 115.669z" />
<glyph unicode="&#xe63d;" glyph-name="ds-dianping" d="M512-76.8c282.77 0 512 229.23 512 512s-229.23 512-512 512c-282.77 0-512-229.23-512-512s229.23-512 512-512v0 0zM709.091 615.664c2.673-3.406 4.844-7.833 6.514-13.283s0.668-11.239-3.007-17.37c-1.67-3.065-3.341-5.79-5.011-8.174s-3.007-4.428-4.009-6.131c-1.336-2.044-2.506-3.917-3.508-5.62l-70.657 43.935c2.004 2.725 4.343 6.131 7.016 10.218s4.844 7.323 6.514 9.707c4.677 6.131 10.189 9.622 16.537 10.473s11.693 0.766 16.036-0.255c4.677-1.022 10.356-3.746 17.038-8.174s12.194-9.536 16.537-15.326v0 0zM508.647 406.204c1.002 1.362 3.174 4.938 6.514 10.728s7.517 12.942 12.528 21.457c5.011 8.515 10.607 17.881 16.787 28.098s12.444 20.605 18.792 31.164c14.699 24.522 31.069 52.11 49.109 82.762l70.657-43.935c-18.040-30.653-34.41-58.24-49.109-82.762-6.347-10.558-12.528-20.946-18.541-31.164s-11.442-19.413-16.286-27.587c-4.844-8.174-8.936-14.901-12.277-20.18s-5.178-8.429-5.512-9.451c-1.67-2.384-3.508-5.024-5.512-7.919s-4.343-5.194-7.016-6.897c-3.007-2.044-7.016-4.598-12.027-7.663s-10.273-6.131-15.785-9.196c-5.512-3.065-10.69-6.045-15.534-8.94s-8.602-5.024-11.275-6.386c-5.011-2.384-9.020-2.81-12.027-1.277s-4.176 5.194-3.508 10.984c0.334 3.065 0.585 7.493 0.752 13.283s0.334 11.75 0.501 17.881c0.167 6.131 0.418 11.92 0.752 17.37s0.835 9.196 1.503 11.239c0.668 3.406 1.42 6.471 2.255 9.196s2.255 5.79 4.259 9.196v0 0zM624.404 392.41c13.363-6.812 24.387-15.582 33.073-26.31s13.029-22.564 13.029-35.506c0-13.623-4.677-26.48-14.031-38.571s-22.299-22.649-38.836-31.674c-16.537-9.026-35.913-16.178-58.129-21.457s-46.353-7.919-72.411-7.919c-26.726 0-51.113 2.554-73.162 7.663s-40.924 12.091-56.626 20.946c-15.702 8.855-27.979 19.243-36.832 31.164s-13.279 24.692-13.279 38.316c0 13.623 4.259 26.651 12.778 39.082s20.796 23.33 36.832 32.696c16.036 9.366 35.579 16.689 58.63 21.968s49.109 7.748 78.173 7.408l-15.534-32.696c-16.704-0.681-32.155-2.98-46.353-6.897s-26.392-9.111-36.581-15.582c-10.189-6.471-18.040-13.623-23.552-21.457s-7.934-15.837-7.266-24.011c0.668-8.855 4.677-16.774 12.027-23.756s16.787-12.857 28.313-17.625c11.526-4.768 24.638-8.344 39.337-10.728s29.733-3.576 45.1-3.576c20.044-0.341 38.168 1.192 54.371 4.598s29.983 8.004 41.342 13.794c11.359 5.79 20.128 12.346 26.308 19.669s9.271 14.901 9.271 22.734c0 6.131-1.503 11.239-4.51 15.326s-6.514 7.493-10.523 10.218l19.042 32.185z" />
<glyph unicode="&#xe63e;" glyph-name="ds-xiangqin" d="M512-76.8c282.77 0 512 229.23 512 512s-229.23 512-512 512c-282.77 0-512-229.23-512-512s229.23-512 512-512v0 0zM438.62 570.879c0 15.553 12.464 28.161 28.032 28.161h225.551c15.482 0 28.032-12.5 28.032-28.161 0-15.553-12.464-28.161-28.032-28.161h-225.551c-15.482 0-28.032 12.5-28.032 28.161v0 0zM441.15 433.654c0 15.553 12.464 28.161 28.032 28.161h225.551c15.482 0 28.032-12.5 28.032-28.161 0-15.553-12.464-28.161-28.032-28.161h-225.551c-15.482 0-28.032 12.5-28.032 28.161v0 0zM441.15 293.527c0 15.553 12.464 28.161 28.032 28.161h225.551c15.482 0 28.032-12.5 28.032-28.161 0-15.553-12.464-28.161-28.032-28.161h-225.551c-15.482 0-28.032 12.5-28.032 28.161v0 0zM335.361 542.717v0 0c-15.553 0-28.161 12.608-28.161 28.161s12.608 28.161 28.161 28.161c15.553 0 28.161-12.608 28.161-28.161s-12.608-28.161-28.161-28.161zM335.361 402.59v0 0c-15.553 0-28.161 12.608-28.161 28.161s12.608 28.161 28.161 28.161c15.553 0 28.161-12.608 28.161-28.161s-12.608-28.161-28.161-28.161zM335.361 262.463v0 0c-15.553 0-28.161 12.608-28.161 28.161s12.608 28.161 28.161 28.161c15.553 0 28.161-12.608 28.161-28.161s-12.608-28.161-28.161-28.161z" />
<glyph unicode="&#xe63f;" glyph-name="ds-xiazai" d="M512-76.8c282.77 0 512 229.23 512 512s-229.23 512-512 512c-282.77 0-512-229.23-512-512s229.23-512 512-512v0 0zM714.658 279.339c-2.342-6.008-5.992-11.317-10.951-15.927s-11.020-8.243-18.183-10.897c-7.163-2.654-14.877-3.982-23.142-3.982-52.070-0.279-98.63-0.419-139.679-0.419h-140.506c-9.918 0-18.665 1.816-26.242 5.449s-13.637 8.103-18.183 13.412c-4.546 5.309-7.576 11.107-9.092 17.394s-1.309 11.945 0.62 16.975c1.653 3.912 3.306 7.963 4.959 12.155 1.378 3.632 3.031 7.754 4.959 12.364s3.995 9.291 6.199 14.041l15.704 38.56h47.111l-17.77-72.416h266.135l-17.77 72.416h45.045c5.786-14.25 11.020-27.104 15.704-38.56 1.929-5.030 3.857-9.919 5.786-14.67s3.65-9.011 5.166-12.783c1.515-3.772 2.755-6.986 3.719-9.64s1.446-4.121 1.446-4.401c1.653-6.706 1.309-13.063-1.033-19.070v0 0zM507.825 375.948c-5.235 6.147-11.227 13.831-17.976 23.052s-13.706 18.721-20.869 28.501c-7.163 9.78-14.257 19.42-21.283 28.92s-13.293 17.743-18.803 24.729c-6.337 7.544-8.816 13.761-7.439 18.651s6.061 7.335 14.051 7.335c4.408-0.279 10.331-0.21 17.77 0.21s13.637 0.629 18.596 0.629c5.51 0 8.954 1.677 10.331 5.030s2.066 7.824 2.066 13.412c0 6.147-0.069 12.923-0.207 20.328s-0.207 15.019-0.207 22.843c0 7.824-0.069 15.508-0.207 23.052s-0.207 14.53-0.207 20.956c0 2.794 0.207 5.728 0.62 8.802s1.378 5.868 2.893 8.383c1.515 2.515 3.719 4.61 6.612 6.287s6.819 2.515 11.778 2.515c5.786 0 11.089 0.070 15.91 0.21s10.4 0.21 16.737 0.21c9.092 0 15.221-2.166 18.39-6.497s4.89-11.247 5.166-20.747v-16.346c0-6.427 0.069-13.272 0.207-20.537s0.207-14.53 0.207-21.795v-19.699c0-8.103 0.827-14.6 2.48-19.49s5.372-7.195 11.158-6.916c4.133 0 9.16-0.14 15.084-0.419s11.089-0.419 15.497-0.419c7.439 0 12.191-2.026 14.257-6.077s0.62-9.291-4.339-15.717c-5.235-6.706-11.296-14.809-18.183-24.31s-13.982-19.35-21.283-29.549c-7.301-10.199-14.464-20.118-21.489-29.758s-13.293-17.953-18.803-24.938c-4.959-6.427-9.711-9.71-14.257-9.85s-9.298 2.864-14.257 9.011v0 0z" />
<glyph unicode="&#xe640;" glyph-name="ds-zongping" d="M512-76.8c282.77 0 512 229.23 512 512s-229.23 512-512 512c-282.77 0-512-229.23-512-512s229.23-512 512-512v0 0zM716.8 461.623c0-48.549-22.272-92.581-58.427-124.745-21.74-19.364-146.373-106.478-146.373-106.478v52.846c-113.112 0-204.8 79.872-204.8 178.378 0 98.523 91.688 178.377 204.8 178.377s204.8-79.854 204.8-178.377v0 0zM583.622 522.331l-102.204-79.689-50.215 37.285-29.48-30.501 77.332-64.055 0.315 0.274 7.838-6.491 135.069 111.871-38.656 31.305z" />
<glyph unicode="&#xe641;" glyph-name="boshimao" horiz-adv-x="1682" d="M1611.032 555.288v-275.858l58.7-58.184-122.209-125.983-123.522 122.43 84.647 76.282v217.759c-359.21-146.931-474.697-192.565-554.188-228.236-79.67-35.5-136.977-35.325-216.122-5.888-78.971 29.612-455.301 165.722-642.158 254.298-124.571 59.139-132.606 96.627 2.183 146.847 175.937 66.151 466.832 172.303 620.929 230.315 91.202 36.539 139.51 56.539 223.285 14.72 149.466-61.215 491.378-188.322 661.287-257.848 148.074-63.984 48.572-84.939 7.168-110.654v0 0zM971.756 174.489c86.918 35.502 203.977 94.205 331.603 148.667v-187.544c0 0-165.017-174.030-455.474-174.030-312.826 0-481.683 174.030-481.683 174.030v158.451c98.623-39.914 209.306-74.031 343.31-119.574 82.641-29.090 187.466-39.309 262.244 0v0 0z" />
<glyph unicode="&#xe642;" glyph-name="daibanrenwu" horiz-adv-x="910" d="M836.688 806.491h-107.389v-172.982h-583.987v172.982h-105.427c-22.027 0-39.885-17.536-39.885-39.169v-803.85c0-21.632 17.857-39.169 39.885-39.169h796.804c22.027 0 39.885 17.536 39.885 39.169v803.85c-0.001 21.632-17.858 39.169-39.887 39.169v0zM748.153 471.11l-345.628-415.577c1.577-5.154-6.224-5.927-11.472-1.717l-251.472 202.227c-5.248 4.209-6.035 11.871-1.748 17.025l41.953 50.443c4.286 5.154 12.087 5.927 17.335 1.717l190.825-155.093 295.622 355.452c4.286 7.185 12.088 7.957 17.336 3.748l48.746-39.099c5.247-4.21 8.266-8.148-1.496-19.125v0zM587.901 856.9v31.788c0 32.315-26.675 58.511-59.581 58.511h-180.356c-32.905 0-59.581-26.197-59.581-58.511v-31.788h-70.048v-157.756h438.26v157.756h-68.695zM438.435 757.228c-36.294 0-65.717 28.895-65.717 64.537s29.423 64.537 65.717 64.537c36.294 0 65.717-28.895 65.717-64.537 0-40.863-29.423-64.537-65.717-64.537v0z" />
<glyph unicode="&#xe643;" glyph-name="zonghe" d="M13.765 823.368c0 55.786 44.368 101.010 101.010 101.010h198.27c55.786 0 101.010-44.368 101.010-101.010v-299.281h-299.281c-55.786 0-101.010 44.368-101.010 101.010v198.27zM614.201 823.368c0 55.786 44.368 101.010 101.010 101.010h198.27c55.786 0 101.010-44.368 101.010-101.010v-198.27c0-55.786-44.368-101.010-101.010-101.010h-299.281v299.281zM614.201 323.942h299.281c55.786 0 101.010-44.368 101.010-101.010v-198.27c0-55.786-44.368-101.010-101.010-101.010h-198.27c-55.786 0-101.010 44.368-101.010 101.010v299.281zM13.765 222.932c0 55.786 44.368 101.010 101.010 101.010h299.281v-299.281c0-55.786-44.368-101.010-101.010-101.010h-198.27c-55.786 0-101.010 44.368-101.010 101.010v198.27z" />
<glyph unicode="&#xe644;" glyph-name="play" d="M512-76.8c282.77 0 512 229.23 512 512s-229.23 512-512 512c-282.77 0-512-229.23-512-512s229.23-512 512-512zM429.511 295.253v279.893l233.244-139.947-233.244-139.947z" />
<glyph unicode="&#xe645;" glyph-name="weijiuye" horiz-adv-x="2234" d="M0 760.573v-650.747c0-102.828 83.563-186.627 186.642-186.627h1860.897c103.137 0 186.642 83.556 186.642 186.627v650.747c0 102.828-83.563 186.627-186.642 186.627h-1860.897c-103.137 0-186.642-83.556-186.642-186.627zM546.816 603.695c0 9.309-0.093 18.618-0.279 27.927s-0.559 18.060-1.117 26.252c-0.559 8.192-1.117 15.546-1.676 22.063s-1.21 11.823-1.955 15.919c17.129-4.096 31.465-5.958 43.008-5.585 6.703 0.372 10.426-0.559 11.171-2.793s-1.676-5.027-7.261-8.378c-2.979-1.862-5.027-6.051-6.144-12.567s-1.676-16.849-1.676-30.999v-31.837h61.161c16.198 0 30.161 0.186 41.891 0.559s21.969 0.745 30.72 1.117c8.751 0.372 17.966 0.931 27.648 1.676v-34.63c-9.682 0.745-18.618 1.303-26.81 1.676s-17.873 0.745-29.044 1.117c-11.171 0.372-25.041 0.559-41.612 0.559h-63.953v-90.484c30.162 0 56.041 0.093 77.638 0.279s40.588 0.372 56.972 0.559c16.384 0.186 30.813 0.465 43.287 0.838s24.483 0.931 36.026 1.676v-34.071c-10.799 0.372-21.876 0.838-33.233 1.396s-23.831 0.931-37.423 1.117c-13.591 0.186-28.765 0.372-45.521 0.559s-35.747 0.279-56.972 0.279c29.789-46.546 60.695-84.34 92.719-113.385s64.419-50.455 97.187-64.233c-6.703-6.33-12.009-11.822-15.919-16.477s-8.285-10.705-13.126-18.153c-20.48 11.543-39.377 24.576-56.692 39.098s-33.699 30.534-49.152 48.035c-15.453 17.501-30.068 36.585-43.846 57.251s-27.369 43.287-40.774 67.863h-11.171v-155.276c0-6.703 0.093-14.429 0.279-23.18s0.559-17.873 1.117-27.369c0.559-9.495 1.21-19.084 1.955-28.765s1.489-18.432 2.234-26.252h-44.684c0.745 7.075 1.396 15.267 1.955 24.576s1.117 18.897 1.676 28.765c0.559 9.868 0.931 19.363 1.117 28.486s0.279 17.036 0.279 23.738v155.276h-18.991c-13.033-24.576-25.786-46.825-38.26-66.746s-25.972-38.726-40.495-56.413c-14.522-17.687-30.72-34.63-48.593-50.828s-38.726-33.047-62.557-50.548c-3.351 7.82-7.54 13.964-12.567 18.432s-11.636 8.378-19.828 11.729c22.342 13.405 42.449 27.089 60.323 41.053s34.35 28.765 49.431 44.404c15.081 15.639 29.23 32.396 42.449 50.269s26.345 37.422 39.377 58.647c-70.377 0-126.976-1.117-169.798-3.351v34.071c13.033-0.745 25.134-1.303 36.305-1.676s24.39-0.745 39.657-1.117c15.267-0.372 34.071-0.559 56.413-0.559h87.133v90.484h-62.557c-16.756 0-31.278-0.186-43.567-0.559s-22.993-0.745-32.116-1.117c-9.123-0.372-18.711-0.931-28.765-1.676v34.63c10.054-0.745 19.456-1.303 28.207-1.676s18.99-0.745 30.72-1.117c11.73-0.372 26.065-0.559 43.008-0.559h65.071zM1063.471 520.471h-126.79v-87.692h126.79v87.692zM1018.787 254.045c0-8.937-0.931-16.291-2.793-22.063s-5.772-10.426-11.729-13.964c-5.958-3.537-14.243-6.237-24.855-8.099s-24.669-2.979-42.17-3.351c-1.117 5.958-2.886 12.102-5.306 18.432s-6.237 12.474-11.45 18.432c14.522-1.862 26.159-2.886 34.909-3.072s15.36 0.652 19.828 2.513c4.468 1.862 7.354 5.027 8.657 9.495s1.955 10.24 1.955 17.315v137.961c-19.363 0-35.374-0.186-48.035-0.559s-24.948-0.931-36.864-1.676c0.745 10.054 1.303 20.294 1.676 30.72s0.559 23.273 0.559 38.54c0 15.639-0.186 29.51-0.559 41.612s-0.931 23.552-1.676 34.351c6.703-0.745 13.405-1.396 20.108-1.955s13.964-0.931 21.783-1.117c7.82-0.186 16.384-0.372 25.693-0.559s20.108-0.279 32.396-0.279c12.288 0 22.993 0.093 32.116 0.279s17.501 0.372 25.135 0.559c7.633 0.186 14.615 0.559 20.945 1.117s12.847 1.21 19.549 1.955c-0.372-10.799-0.559-22.342-0.559-34.63v-79.872c0-10.426 0.186-20.48 0.559-30.161-11.543 0.745-23.086 1.21-34.63 1.396s-26.624 0.279-45.242 0.279v-153.6zM953.437 350.115c-3.351-1.117-7.168-4.468-11.45-10.054s-9.030-12.474-14.243-20.666c-7.447-11.916-14.708-22.714-21.783-32.396s-13.964-18.804-20.666-27.369c-4.096 4.096-8.751 7.82-13.964 11.171s-10.985 6.33-17.315 8.937c8.564 7.447 16.012 14.336 22.342 20.666s12.009 13.219 17.036 20.666c5.027 7.447 9.775 15.825 14.243 25.135s9.495 20.666 15.081 34.071c4.841-4.096 9.495-7.261 13.964-9.495s9.309-4.096 14.522-5.585c6.703-1.862 10.054-4.375 10.054-7.54s-2.607-5.679-7.82-7.54v0zM1093.632 285.324c-8.564 15.267-17.129 28.951-25.693 41.053s-18.432 24.483-29.603 37.143l22.342 19.549c9.682-10.426 19.456-21.69 29.324-33.792s20.573-26.717 32.116-43.846l-28.486-20.108zM1379.607 269.684c-2.979-11.171-6.33-20.573-10.054-28.207s-8.564-13.684-14.522-18.153c-5.958-4.468-13.405-7.727-22.342-9.775s-19.921-3.072-32.954-3.072c-14.15 0-25.228 0.652-33.233 1.955s-14.15 4.189-18.432 8.657c-4.282 4.468-6.982 11.078-8.099 19.828s-1.676 20.573-1.676 35.468v120.087c0 17.129-0.279 31.372-0.838 42.729s-1.21 20.945-1.955 28.765c7.075-1.862 13.405-3.072 18.991-3.631s12.66-0.465 21.225 0.279c5.213 0.372 8.006-0.279 8.378-1.955s-1.489-4.934-5.585-9.775c-2.979-2.979-5.306-7.726-6.982-14.243s-2.513-14.615-2.513-24.297v-146.339c0-9.309 2.513-16.012 7.54-20.108s14.429-6.144 28.207-6.144c7.075 0 13.033 0.652 17.873 1.955s8.751 3.724 11.729 7.261c2.979 3.537 5.399 8.471 7.261 14.801s3.537 14.522 5.027 24.576c4.841-5.958 9.402-10.147 13.684-12.567s10.705-5.12 19.27-8.099v0zM1275.718 545.047c23.087 0 41.053 0.279 53.9 0.838s24.11 1.396 33.792 2.513v-35.188c-4.841 0.372-9.961 0.838-15.36 1.396s-11.543 0.931-18.432 1.117c-6.889 0.186-14.801 0.372-23.738 0.559s-19.177 0.279-30.72 0.279h-55.296c-1.862-46.173-5.399-85.457-10.612-117.853s-12.753-60.695-22.621-84.899c-9.868-24.204-22.435-45.521-37.702-63.953s-33.699-36.585-55.296-54.458c-4.841 7.075-9.961 12.66-15.36 16.756s-12.567 7.075-21.504 8.937c21.597 14.522 40.122 29.51 55.575 44.963s28.393 34.071 38.819 55.855c10.426 21.783 18.525 48.221 24.297 79.313s9.961 69.539 12.567 115.34c-15.639-0.372-28.951-0.838-39.936-1.396s-20.573-1.21-28.765-1.955v35.188c8.564-0.745 18.246-1.396 29.044-1.955s24.39-1.024 40.774-1.396c0.745 13.778 1.117 27.927 1.117 42.449s-0.279 28.672-0.838 42.449c-0.559 13.778-1.396 26.903-2.513 39.377s-2.234 23.552-3.351 33.233c8.192-2.234 15.546-3.724 22.063-4.468s13.871-0.931 22.063-0.559c4.468 0.372 6.889-0.838 7.261-3.631s-1.489-5.306-5.585-7.54c-1.489-0.745-2.607-2.048-3.351-3.91s-1.396-5.399-1.955-10.612c-0.559-5.213-1.024-12.567-1.396-22.063s-0.559-22.062-0.559-37.702c0-11.916-0.093-23.459-0.279-34.63s-0.465-21.969-0.838-32.396h54.737zM1139.433 584.145c-16.012 1.117-35.747 2.048-59.206 2.793s-49.71 1.117-78.755 1.117c-29.045 0-55.296-0.372-78.755-1.117s-43.194-1.676-59.206-2.793v35.188c16.384-1.117 36.212-2.048 59.485-2.793s49.431-1.117 78.476-1.117c29.045 0 55.296 0.465 78.755 1.396s43.194 1.769 59.206 2.513v-35.188zM1314.816 569.623c-8.564 14.895-17.687 28.393-27.369 40.495s-21.783 24.669-36.305 37.702l23.459 19.549c10.799-10.054 22.342-21.969 34.63-35.747s23.645-27.369 34.071-40.774l-28.486-21.225zM1004.265 622.127c-8.937 14.15-17.687 26.438-26.252 36.864s-18.99 21.038-31.279 31.837l25.693 20.108c11.171-9.682 21.504-20.014 30.999-30.999s19.642-23.552 30.441-37.702l-29.603-20.108zM1540.468 366.871c-5.213 19.735-10.333 37.795-15.36 54.179s-10.612 32.302-16.756 47.756c-6.144 15.453-13.126 30.999-20.945 46.639s-16.942 32.582-27.369 50.828l32.396 13.405c9.309-17.129 17.78-33.42 25.414-48.873s14.801-31.092 21.504-46.918c6.703-15.826 13.312-32.209 19.828-49.152s13.126-35.468 19.828-55.575l-38.54-12.288zM1718.086 622.127c0 18.246-0.279 31.93-0.838 41.053s-1.396 17.222-2.513 24.297c8.564-0.745 16.663-1.21 24.297-1.396s14.615-0.279 20.945-0.279c5.585 0 8.937-1.769 10.054-5.306s-1.117-6.982-6.703-10.333c-2.979-1.862-5.306-5.585-6.982-11.171s-2.513-12.102-2.513-19.549v-375.343c16.384 0 32.768 0.093 49.152 0.279s31.744 0.559 46.080 1.117c14.336 0.559 27.276 1.024 38.819 1.396s20.666 0.931 27.369 1.676v-36.864c-8.192 0.745-18.618 1.396-31.279 1.955s-28.486 1.117-47.476 1.676c-18.991 0.559-41.612 0.931-67.863 1.117s-57.251 0.279-92.998 0.279c-44.684 0-80.803-0.093-108.358-0.279s-49.71-0.465-66.467-0.838c-16.756-0.372-29.789-0.931-39.098-1.676s-17.873-1.489-25.693-2.234v36.864c13.033-1.117 33.792-2.141 62.278-3.072s63.022-1.396 103.61-1.396v359.145c0 14.15-0.372 27.089-1.117 38.819s-1.489 21.132-2.234 28.207c7.82-1.117 15.732-1.862 23.738-2.234s15.174-0.372 21.504 0c5.213 0.372 8.099-0.559 8.657-2.793s-1.21-4.841-5.306-7.82c-2.979-1.862-5.585-6.237-7.82-13.126s-3.351-14.057-3.351-21.504v-378.694h82.106v358.028zM1896.262 556.777c-2.234-1.489-4.375-3.258-6.423-5.306s-4.189-4.934-6.423-8.657c-2.234-3.724-4.748-8.564-7.54-14.522s-6.237-13.591-10.333-22.9c-5.958-13.405-11.729-26.252-17.315-38.54s-10.985-24.204-16.198-35.747c-5.213-11.543-10.612-22.993-16.198-34.351s-11.357-23.18-17.315-35.468c-4.468 3.724-8.937 6.796-13.405 9.216s-10.24 4.748-17.315 6.982c7.447 11.171 15.36 25.134 23.738 41.891s16.477 34.816 24.297 54.179c7.82 19.363 15.081 38.912 21.783 58.647s12.102 38.353 16.198 55.855c15.639-8.192 28.858-13.591 39.657-16.198 4.468-1.117 6.982-3.444 7.54-6.982s-1.024-6.237-4.748-8.099v0z" />
</font>
</defs>
</svg>
